<?xml version="1.0" encoding="UTF-8"?>
<svg version="1.1" xmlns="http://www.w3.org/2000/svg" width="800" height="800">
<path d="M0 0 C0.79736069 -0.00860046 1.59472137 -0.01720093 2.41624451 -0.02606201 C3.28225281 -0.03032196 4.14826111 -0.03458191 5.04051208 -0.03897095 C5.95976974 -0.04714844 6.8790274 -0.05532593 7.82614136 -0.06375122 C10.86821348 -0.08855976 13.91023896 -0.10511264 16.95237732 -0.11953735 C18.51496938 -0.12752287 18.51496938 -0.12752287 20.10912895 -0.13566971 C25.62661375 -0.1623858 31.14407609 -0.18176279 36.66160583 -0.19619751 C41.21552198 -0.20951709 45.76898797 -0.23733587 50.32273865 -0.27822876 C55.83225824 -0.327699 61.34137064 -0.35233661 66.85110283 -0.35942459 C68.94374474 -0.36611356 71.03637841 -0.38127375 73.1288929 -0.4053154 C88.50459918 -0.57184699 99.1414363 0.64232088 110.71800232 11.68515015 C118.74732236 20.57224343 121.25848871 29.35204683 121.28440857 41.0718689 C121.29439377 42.65141106 121.29439377 42.65141106 121.30458069 44.26286316 C121.31468509 46.48767355 121.31939839 48.7125141 121.31907654 50.93734741 C121.32343413 54.31278512 121.3597357 57.68689794 121.39768982 61.06210327 C121.4035618 63.23202072 121.40752864 65.40194432 121.40940857 67.5718689 C121.4237796 68.56808762 121.43815063 69.56430634 121.45295715 70.5907135 C121.40074506 78.74353423 119.7023715 86.84125018 114.76097107 93.52890015 C108.88679613 99.01146342 102.42361954 102.26417072 94.35198975 102.29434204 C93.43394058 102.30005219 92.51589142 102.30576233 91.57002258 102.31164551 C90.56996185 102.31276337 89.56990112 102.31388123 88.53953552 102.31503296 C86.95100517 102.32248032 86.95100517 102.32248032 85.3303833 102.33007812 C81.82416637 102.34469159 78.31799471 102.35150102 74.81175232 102.35702515 C72.37280272 102.362778 69.93385314 102.36853572 67.49490356 102.3742981 C62.3779428 102.38480627 57.26099774 102.3906499 52.14402771 102.39413452 C45.59828115 102.39961375 39.05274318 102.42363058 32.50706196 102.45210648 C27.46691285 102.47076386 22.42681364 102.47594015 17.38663292 102.4774704 C14.97418772 102.48049128 12.56174327 102.48850066 10.14933205 102.50165558 C6.76752156 102.51877775 3.38621594 102.51682032 0.00437927 102.51034546 C-0.9855603 102.51956024 -1.97549988 102.52877502 -2.99543762 102.53826904 C-12.82354579 102.47955066 -19.91765769 100.21629907 -27.10231018 93.4078064 C-33.58839517 85.90786444 -34.20883569 77.13621853 -34.25465393 67.64608765 C-34.260354 66.72482086 -34.26605408 65.80355408 -34.27192688 64.85437012 C-34.28135627 62.90604797 -34.28790266 60.95771003 -34.29176331 59.0093689 C-34.30142749 56.05985875 -34.33245347 53.11105826 -34.36402893 50.16171265 C-34.44844055 35.34480142 -33.55234473 22.26866376 -22.94215393 10.8921814 C-16.36871872 4.76075303 -9.21030704 0.07438458 0 0 Z M-14.16404724 25.253479 C-16.18740293 29.58621958 -15.86284753 34.46498261 -15.89918518 39.1578064 C-15.92379318 40.31384872 -15.94840118 41.46989105 -15.97375488 42.66096497 C-16.01961048 45.09908945 -16.05332772 47.53746858 -16.07569885 49.97592163 C-16.11394168 53.70788598 -16.20006798 57.43658013 -16.29176331 61.16757202 C-16.33043553 63.53927183 -16.36633688 65.91101878 -16.39918518 68.2828064 C-16.42601883 69.39748795 -16.45285248 70.51216949 -16.48049927 71.66062927 C-16.53237317 77.779627 -16.53237317 77.779627 -14.21730042 83.33334351 C-11.12433331 85.93330469 -8.64044075 86.27916932 -4.73820496 86.29434204 C-3.85782059 86.30005219 -2.97743622 86.30576233 -2.07037354 86.31164551 C-0.6255938 86.3133223 -0.6255938 86.3133223 0.84837341 86.31503296 C1.86490494 86.31999786 2.88143646 86.32496277 3.92877197 86.33007812 C7.29732435 86.3447038 10.66582964 86.35150212 14.03440857 86.35702515 C16.37226869 86.36277585 18.7101288 86.36853359 21.04798889 86.3742981 C25.95231852 86.38480895 30.85663176 86.39065121 35.76097107 86.39413452 C42.04819231 86.39962226 48.33519732 86.42365609 54.62235069 86.45210648 C59.45217017 86.47071988 64.28193739 86.47593775 69.1117897 86.4774704 C71.4298534 86.48049991 73.74791611 86.48853842 76.06594467 86.50165558 C79.30739101 86.51869011 82.54830685 86.51684207 85.78977966 86.51034546 C86.74891769 86.51956024 87.70805573 86.52877502 88.69625854 86.53826904 C93.60252182 86.50743045 96.98001746 86.37760432 100.94847107 83.15390015 C104.88409496 78.63974546 104.39958705 73.6027376 104.38206482 67.91952515 C104.38730667 66.92692688 104.39254852 65.93432861 104.39794922 64.91165161 C104.40436337 62.81369968 104.4030403 60.71571175 104.39451599 58.61776733 C104.38603681 55.42862786 104.41472691 52.24129891 104.44651794 49.05233765 C104.44813103 47.00806735 104.44755037 44.9637939 104.44456482 42.91952515 C104.4557988 41.97546814 104.46703278 41.03141113 104.47860718 40.05874634 C104.41270258 33.70685879 103.23474763 28.64545227 99.94847107 23.15390015 C97.82216989 20.95141492 97.82216989 20.95141492 95.38597107 19.65390015 C94.62155701 19.18983765 93.85714294 18.72577515 93.06956482 18.24765015 C88.56516292 15.9249383 84.41920246 15.98678034 79.47312927 15.96102905 C78.60772018 15.95285156 77.7423111 15.94467407 76.85067749 15.93624878 C73.98354277 15.91141535 71.11645755 15.89488254 68.24925232 15.88046265 C67.26905813 15.87513897 66.28886395 15.86981529 65.2789669 15.86433029 C60.08913836 15.83760554 54.89933379 15.81822988 49.7094574 15.80380249 C45.41920108 15.79047089 41.12942125 15.76263149 36.83934021 15.72177124 C31.65517593 15.67239678 26.47144342 15.64767526 21.28705406 15.64057541 C19.31473771 15.6338717 17.34243066 15.61867261 15.37024879 15.5946846 C12.6032543 15.56295376 9.83791529 15.56300825 7.07078552 15.57040405 C6.2626944 15.55399872 5.45460327 15.53759338 4.62202454 15.52069092 C-2.89108666 15.60250104 -9.55999517 19.18060522 -14.16404724 25.253479 Z M-16.05152893 30.15390015 C-15.05152893 33.15390015 -15.05152893 33.15390015 -15.05152893 33.15390015 Z M-17.05152893 34.15390015 C-17.05152893 48.34390015 -17.05152893 62.53390015 -17.05152893 77.15390015 C-16.72152893 77.15390015 -16.39152893 77.15390015 -16.05152893 77.15390015 C-16.05152893 62.96390015 -16.05152893 48.77390015 -16.05152893 34.15390015 C-16.38152893 34.15390015 -16.71152893 34.15390015 -17.05152893 34.15390015 Z " fill="#41556B" transform="translate(158.05152893066406,384.8460998535156)"/>
<path d="M0 0 C10.4615257 8.8248388 14.40523488 17.18343954 17.6875 30.3125 C17.6875 35.9225 17.6875 41.5325 17.6875 47.3125 C-3.1025 47.3125 -23.8925 47.3125 -45.3125 47.3125 C-42.8895371 58.63255982 -42.8895371 58.63255982 -35.234375 66.73046875 C-27.27714992 70.5838802 -19.91318028 71.16800979 -11.546875 68.3359375 C-7.19361688 66.34196263 -4.90344715 63.19892073 -2.3125 59.3125 C-0.24951172 58.97192383 -0.24951172 58.97192383 2.2578125 59.01953125 C3.15371094 59.02919922 4.04960937 59.03886719 4.97265625 59.04882812 C5.90980469 59.07396484 6.84695313 59.09910156 7.8125 59.125 C9.22982422 59.14530273 9.22982422 59.14530273 10.67578125 59.16601562 C13.01358779 59.20143694 15.35026237 59.25082729 17.6875 59.3125 C16.06851909 69.44872828 8.70416059 76.12138706 0.73828125 81.95703125 C-8.87195392 88.30893906 -20.72566875 88.64785034 -31.796875 86.69921875 C-43.35000392 83.56218494 -53.21755654 76.74056733 -59.3125 66.3125 C-66.21334142 51.19893846 -67.34383677 36.54574339 -62.5703125 20.65625 C-60.78729126 15.91629292 -58.58174038 12.16445221 -55.3125 8.3125 C-54.714375 7.60480469 -54.11625 6.89710938 -53.5 6.16796875 C-40.00335096 -8.49875269 -16.62769738 -11.68168955 0 0 Z M-40.125 15.875 C-43.02527278 19.78231194 -46.3125 26.38128262 -46.3125 31.3125 C-31.4625 31.3125 -16.6125 31.3125 -1.3125 31.3125 C-2.42139016 23.55026891 -4.3964437 18.71621084 -10.1875 13.4375 C-20.11148726 6.68918866 -31.45783204 7.97824697 -40.125 15.875 Z " fill="#43586E" transform="translate(414.3125,363.6875)"/>
<path d="M0 0 C6.90259008 5.72858398 11.87150352 12.91096231 13.01878357 21.91143799 C13.62110644 29.24238373 13.82044668 36.50560599 13.78515625 43.859375 C13.7837413 44.99658997 13.78232635 46.13380493 13.78086853 47.30548096 C13.77532942 50.89118223 13.76278877 54.47681802 13.75 58.0625 C13.74497711 60.51301992 13.7404156 62.96354084 13.73632812 65.4140625 C13.72538004 71.38023018 13.70870392 77.34636041 13.6875 83.3125 C14.3475 83.6425 15.0075 83.9725 15.6875 84.3125 C8.7575 84.3125 1.8275 84.3125 -5.3125 84.3125 C-6.28267467 81.40197599 -6.42888219 79.59324098 -6.41015625 76.5690918 C-6.40685303 75.60766769 -6.4035498 74.64624359 -6.40014648 73.65568542 C-6.39184814 72.61817642 -6.3835498 71.58066742 -6.375 70.51171875 C-6.37121338 69.44258743 -6.36742676 68.37345612 -6.36352539 67.27192688 C-6.34716484 62.69303746 -6.31909544 58.11423682 -6.29199219 53.53540039 C-6.27388645 50.19417739 -6.26180227 46.85296902 -6.25 43.51171875 C-6.24170166 42.48028244 -6.23340332 41.44884613 -6.22485352 40.38615417 C-6.2084759 35.57245696 -6.30622543 31.04513511 -7.3125 26.3125 C-7.4671875 25.3225 -7.4671875 25.3225 -7.625 24.3125 C-8.70052506 21.18369984 -10.25161579 18.88860526 -12.3125 16.3125 C-14.82426074 15.49318911 -14.82426074 15.49318911 -17.3125 15.3125 C-18.3025 14.6525 -19.2925 13.9925 -20.3125 13.3125 C-27.41908851 12.72028429 -32.39713389 13.92720045 -38.0625 18.5625 C-43.8725552 25.66367858 -43.77655141 32.37790257 -43.82421875 41.24609375 C-43.84216995 42.47916763 -43.86012115 43.71224152 -43.87861633 44.98268127 C-43.93261955 48.9050865 -43.96658421 52.8273707 -44 56.75 C-44.03155677 59.41606137 -44.06767204 62.08203685 -44.10351562 64.74804688 C-44.18834087 71.26944382 -44.25520051 77.79080547 -44.3125 84.3125 C-50.9125 84.3125 -57.5125 84.3125 -64.3125 84.3125 C-64.3125 55.6025 -64.3125 26.8925 -64.3125 -2.6875 C-57.7125 -2.6875 -51.1125 -2.6875 -44.3125 -2.6875 C-43.9825 -0.0475 -43.6525 2.5925 -43.3125 5.3125 C-42.88839844 4.84199219 -42.46429687 4.37148438 -42.02734375 3.88671875 C-31.10531701 -7.70743271 -13.25865956 -9.28612225 0 0 Z " fill="#485D74" transform="translate(566.3125,362.6875)"/>
<path d="M0 0 C7.36494316 5.12523097 11.69013628 11.88481282 13.59375 20.64453125 C13.59375 22.29453125 13.59375 23.94453125 13.59375 25.64453125 C6.99375 25.64453125 0.39375 25.64453125 -6.40625 25.64453125 C-7.06625 23.00453125 -7.72625 20.36453125 -8.40625 17.64453125 C-11.33437404 13.52346779 -14.52764779 12.58877684 -19.40625 11.64453125 C-25.79903945 11.05869685 -30.80764056 11.37867575 -36.40625 14.64453125 C-38.1001004 16.85390134 -38.36275481 18.42705529 -38.90625 21.14453125 C-38.63240506 23.92632796 -38.63240506 23.92632796 -35.78613281 25.69165039 C-32.37551321 27.66229082 -29.66111835 28.56749657 -25.828125 29.390625 C-24.58417969 29.67099609 -23.34023438 29.95136719 -22.05859375 30.24023438 C-19.47276662 30.79803793 -16.88683037 31.35533588 -14.30078125 31.91210938 C-3.35706302 34.37981054 6.50485728 37.46823864 13.59375 46.64453125 C16.76481859 52.57305078 16.39132795 60.42461884 15.1640625 66.91796875 C12.69061281 74.64368197 6.69264553 80.68793967 -0.26953125 84.61328125 C-11.29517908 89.93461768 -23.6362248 90.29599322 -35.34375 87.01953125 C-45.12100228 83.57871384 -51.78979463 78.50568306 -57.21875 69.70703125 C-58.40625 66.64453125 -58.40625 66.64453125 -58.40625 59.64453125 C-52.13625 59.64453125 -45.86625 59.64453125 -39.40625 59.64453125 C-38.41625 62.61453125 -37.42625 65.58453125 -36.40625 68.64453125 C-30.79144649 72.83166176 -21.0835943 72.47116259 -14.40625 71.64453125 C-10.14332406 70.37181179 -7.30184412 68.64868223 -4.34375 65.33203125 C-3.05726 61.64409325 -3.30102609 59.37466193 -4.40625 55.64453125 C-10.59228881 50.39577104 -19.91627774 48.99265569 -27.65625 47.33203125 C-38.82886412 44.78079673 -49.891028 41.90952131 -56.40625 31.64453125 C-59.38621957 26.5919877 -59.10560193 21.14129092 -57.9765625 15.49609375 C-55.54485529 7.90076137 -50.41595891 2.40775155 -43.40625 -1.23046875 C-29.72619276 -7.66549568 -13.26885038 -7.47449851 0 0 Z " fill="#455A6F" transform="translate(686.40625,362.35546875)"/>
<path d="M0 0 C9.10255528 7.20407075 14.99799382 16.1120129 17.09765625 27.66015625 C18.18281394 38.92197569 16.7195296 49.14624135 9.91015625 58.41015625 C2.94383488 66.61195769 -4.93562954 74.01206858 -15.90234375 75.66015625 C-34.09271357 76.60985427 -34.09271357 76.60985427 -41.90234375 72.66015625 C-42.71960938 72.25796875 -43.536875 71.85578125 -44.37890625 71.44140625 C-54.32700498 66.03156404 -60.69769245 58.10862449 -64.90234375 47.66015625 C-67.81490366 37.4971532 -67.20119311 24.71383591 -62.5078125 15.30078125 C-56.20242212 4.92987152 -47.92402862 -3.82763355 -35.80078125 -6.90625 C-22.8584329 -8.8423695 -10.82597674 -7.77102739 0 0 Z M-43.77734375 16.47265625 C-50.094457 24.48996703 -51.09794792 31.50880013 -49.90234375 41.66015625 C-47.40500748 49.72847344 -43.1343526 53.77000386 -36.33984375 58.41015625 C-30.53596169 61.38650602 -23.5094542 61.69458763 -17.2734375 59.90625 C-8.83333014 56.69875763 -4.83982116 53.23922328 -0.91796875 45.09765625 C2.47073775 36.96476065 1.39382931 30.15247897 -1.76953125 22.14453125 C-4.70487473 15.70701935 -9.23417588 12.40690285 -15.52734375 9.41015625 C-26.3420153 7.0068959 -36.04597741 8.16022689 -43.77734375 16.47265625 Z " fill="#465C72" transform="translate(225.90234375,297.33984375)"/>
<path d="M0 0 C2.95887459 -0.08069658 5.9155659 -0.14034665 8.875 -0.1875 C9.71675781 -0.21263672 10.55851563 -0.23777344 11.42578125 -0.26367188 C12.23144531 -0.27333984 13.03710938 -0.28300781 13.8671875 -0.29296875 C14.98262939 -0.31653442 14.98262939 -0.31653442 16.12060547 -0.34057617 C17.05090576 -0.17199097 17.05090576 -0.17199097 18 0 C18.66 0.99 19.32 1.98 20 3 C20.33 3 20.66 3 21 3 C21 9.27 21 15.54 21 22 C20.01 22 19.02 22 18 22 C18.495 23.98 18.495 23.98 19 26 C19.66 25.34 20.32 24.68 21 24 C21 26.97 21 29.94 21 33 C20.01 33.495 20.01 33.495 19 34 C19 37.96 19 41.92 19 46 C19.66 46 20.32 46 21 46 C21 48.31 21 50.62 21 53 C20.34 53 19.68 53 19 53 C19.00523682 53.7842334 19.01047363 54.5684668 19.01586914 55.37646484 C19.30932989 106.11174139 19.30932989 106.11174139 9.09375 117.0390625 C2.24077413 123.6748666 -4.12888931 126.12053166 -13.625 126.1875 C-15.06875 126.125625 -16.5125 126.06375 -18 126 C-18 120.06 -18 114.12 -18 108 C-16.453125 107.773125 -14.90625 107.54625 -13.3125 107.3125 C-8.48010014 106.3350839 -5.98107211 105.09897415 -3 101 C-0.78861342 95.8285762 -0.69491982 91.12217747 -0.68115234 85.59814453 C-0.67110672 84.67067917 -0.6610611 83.74321381 -0.65071106 82.78764343 C-0.6199333 79.73603916 -0.60285887 76.68452241 -0.5859375 73.6328125 C-0.56722152 71.51145681 -0.54764778 69.39010852 -0.5272522 67.26876831 C-0.47597057 61.69576388 -0.43632351 56.12273533 -0.39910889 50.54962158 C-0.35904443 44.85854137 -0.3079632 39.16756118 -0.2578125 33.4765625 C-0.16110016 22.31777864 -0.07668028 11.15893824 0 0 Z M19 18 C20 20 20 20 20 20 Z " fill="#465C72" transform="translate(598,360)"/>
<path d="M0 0 C6.27 0 12.54 0 19 0 C19 39.93 19 79.86 19 121 C19.66 121.33 20.32 121.66 21 122 C21 122.99 21 123.98 21 125 C14.07 124.67 7.14 124.34 0 124 C0 83.08 0 42.16 0 0 Z " fill="#42576C" transform="translate(317,323)"/>
<path d="M0 0 C0 6.27 0 12.54 0 19 C-3.155625 18.87625 -3.155625 18.87625 -6.375 18.75 C-14.17763836 18.75789741 -20.5811417 19.8441308 -26.4375 25.25 C-30.8539536 33.02295834 -31.46138395 39.56811629 -31.51171875 48.375 C-31.52966995 49.5400708 -31.54762115 50.7051416 -31.56611633 51.90551758 C-31.62002508 55.60364227 -31.65405354 59.30163931 -31.6875 63 C-31.72069012 65.51694477 -31.75518134 68.03387274 -31.79101562 70.55078125 C-31.87574081 76.70042846 -31.94264515 82.85003908 -32 89 C-38.27 89 -44.54 89 -51 89 C-51 60.29 -51 31.58 -51 2 C-44.73 2 -38.46 2 -32 2 C-31.67 4.64 -31.34 7.28 -31 10 C-30.52691406 9.52949219 -30.05382812 9.05898438 -29.56640625 8.57421875 C-20.28881641 -0.16082198 -12.5162424 -0.36455075 0 0 Z " fill="#4C647D" transform="translate(493,358)"/>
<path d="M0 0 C2.23718488 1.78230969 3.9823635 3.35718585 5.875 5.4375 C6.60203125 6.19256836 6.60203125 6.19256836 7.34375 6.96289062 C10.05638091 9.81569939 11.75812921 11.73017833 12.5 15.625 C11.57720589 21.85386028 6.37767703 25.89772698 1.8125 29.9375 C-2.36363636 33 -2.36363636 33 -5 33 C-10.55185614 30.96054264 -10.55185614 30.96054264 -12.20043945 27.42700195 C-13.85514371 24.62245164 -13.85514371 24.62245164 -17.46166992 24.34057617 C-18.88409883 24.29951552 -20.30746807 24.28528409 -21.73046875 24.29296875 C-22.85609978 24.27028679 -22.85609978 24.27028679 -24.00447083 24.24714661 C-26.39911761 24.20419002 -28.79250595 24.19542488 -31.1875 24.1875 C-32.8118826 24.16436157 -34.43623514 24.13899758 -36.06054688 24.11132812 C-40.04105343 24.04420666 -44.0180329 24.02333598 -48 24 C-48 19.05 -48 14.1 -48 9 C-36.78 9 -25.56 9 -14 9 C-13.34 6.69 -12.68 4.38 -12 2 C-8.0341691 -1.62590254 -5.04737298 -1.23380228 0 0 Z " fill="#41566B" transform="translate(239,423)"/>
<path d="M0 0 C2.89396771 2.30033331 3.82767735 3.48303205 5 7 C5.48544905 11.93539869 5.55588913 14.03167701 3.0625 18.375 C0.24641705 21.27063332 -2.70623761 22.35370819 -6.6484375 23.01953125 C-10.6655456 22.98616656 -13.83639061 21.40495006 -17 19 C-19.83799806 14.74300291 -19.75371584 10.99628132 -19 6 C-17.2686236 2.35147721 -14.74459533 0.39711751 -11.1875 -1.5 C-7.03188393 -2.15186134 -3.86865704 -1.62500093 0 0 Z " fill="#4A6077" transform="translate(615,323)"/>
<path d="M0 0 C6.27 0 12.54 0 19 0 C19.33 2.64 19.66 5.28 20 8 C20.51949219 7.50628906 21.03898437 7.01257813 21.57421875 6.50390625 C22.27160156 5.86324219 22.96898437 5.22257812 23.6875 4.5625 C24.37199219 3.92441406 25.05648438 3.28632813 25.76171875 2.62890625 C28.22289422 0.83778902 30.00816574 0.37201442 33 0 C31.16962599 2.0337489 29.46484417 3.33738085 27.125 4.8125 C24.54779786 6.6165415 23.14271083 7.87011212 21.25 10.25 C20.5075 11.1575 19.765 12.065 19 13 C18.34 13 17.68 13 17 13 C17 9.04 17 5.08 17 1 C11.72 1 6.44 1 1 1 C1 29.05 1 57.1 1 86 C6.28 86 11.56 86 17 86 C16.97381592 84.55343018 16.94763184 83.10686035 16.9206543 81.61645508 C16.82942825 76.195066 16.77248907 70.77374328 16.7253418 65.35180664 C16.70036154 63.01542715 16.66636535 60.67912448 16.62280273 58.34301758 C16.10685316 29.94151076 16.10685316 29.94151076 23.84448242 20.82739258 C25.52716011 19.16001848 26.82556761 17.94371339 29 17 C31.21484375 17.3671875 31.21484375 17.3671875 33 18 C32.46890625 18.268125 31.9378125 18.53625 31.390625 18.8125 C24.59721508 22.58110696 22.39646858 26.81059427 20 34 C19.88446109 35.73277162 19.82354865 37.46943121 19.79467773 39.20581055 C19.77473251 40.26668381 19.75478729 41.32755707 19.73423767 42.420578 C19.71752518 43.56440445 19.70081268 44.7082309 19.68359375 45.88671875 C19.66281265 47.05886429 19.64203156 48.23100983 19.62062073 49.43867493 C19.55516182 53.18822286 19.49625704 56.93784163 19.4375 60.6875 C19.39431132 63.22722091 19.35069692 65.76693462 19.30664062 68.30664062 C19.1994841 74.53768755 19.09820612 80.76880584 19 87 C12.73 87 6.46 87 0 87 C0 58.29 0 29.58 0 0 Z " fill="#13191F" transform="translate(442,360)"/>
<path d="M0 0 C-0.56847656 0.36351562 -1.13695312 0.72703125 -1.72265625 1.1015625 C-6.83110042 4.4275946 -11.41556698 7.9886211 -16 12 C-16.33 12 -16.66 12 -17 12 C-17 8.37 -17 4.74 -17 1 C-22.61 1 -28.22 1 -34 1 C-34 29.05 -34 57.1 -34 86 C-28.39 86 -22.78 86 -17 86 C-17.01047363 84.42065674 -17.02094727 82.84131348 -17.03173828 81.21411133 C-17.06794624 75.35296903 -17.09090352 69.49183662 -17.10986328 63.63061523 C-17.11991901 61.09413999 -17.13356535 58.55767632 -17.15087891 56.02124023 C-17.17514563 52.37480814 -17.1864875 48.72852937 -17.1953125 45.08203125 C-17.20563507 43.94852737 -17.21595764 42.8150235 -17.22659302 41.64717102 C-17.22674408 40.58644882 -17.22689514 39.52572662 -17.22705078 38.43286133 C-17.231492 37.50242508 -17.23593323 36.57198883 -17.24050903 35.61335754 C-16.97774771 32.75820784 -16.18517899 30.5973739 -15 28 C-13.95494937 31.13515189 -13.91186548 33.1977932 -13.97827148 36.48120117 C-14.00841591 38.16260445 -14.00841591 38.16260445 -14.03916931 39.87797546 C-14.07972191 41.69214714 -14.07972191 41.69214714 -14.12109375 43.54296875 C-14.14470474 44.78170242 -14.16831573 46.0204361 -14.19264221 47.29670715 C-14.25628831 50.58638512 -14.32449353 53.87592733 -14.39489746 57.16546631 C-14.46565149 60.52364737 -14.53042611 63.88194317 -14.59570312 67.24023438 C-14.72495107 73.8269455 -14.86076172 80.41349279 -15 87 C-21.6 87 -28.2 87 -35 87 C-35 58.29 -35 29.58 -35 0 C-28.4 0 -21.8 0 -15 0 C-14.67 2.64 -14.34 5.28 -14 8 C-13.32904297 7.27683594 -13.32904297 7.27683594 -12.64453125 6.5390625 C-4.31884058 -2.15942029 -4.31884058 -2.15942029 0 0 Z " fill="#080B0E" transform="translate(537,360)"/>
<path d="M0 0 C4.95 0 9.9 0 15 0 C15.66 0.66 16.32 1.32 17 2 C17.66 2 18.32 2 19 2 C19 8.27 19 14.54 19 21 C18.01 21 17.02 21 16 21 C16.33 22.32 16.66 23.64 17 25 C17.66 24.34 18.32 23.68 19 23 C19 25.97 19 28.94 19 32 C18.01 32.495 18.01 32.495 17 33 C17 36.3 17 39.6 17 43 C16.34 43 15.68 43 15 43 C14.67 43.66 14.34 44.32 14 45 C14 30.48 14 15.96 14 1 C9.71 1 5.42 1 1 1 C1 32.02 1 63.04 1 95 C0.67 95 0.34 95 0 95 C0 63.65 0 32.3 0 0 Z M17 17 C18 19 18 19 18 19 Z " fill="#627386" transform="translate(600,361)"/>
<path d="M0 0 C0.66 0.99 1.32 1.98 2 3 C2.66 2.67 3.32 2.34 4 2 C4 4.31 4 6.62 4 9 C3.34 9 2.68 9 2 9 C2.00523682 9.7842334 2.01047363 10.5684668 2.01586914 11.37646484 C2.29620731 59.84303154 2.29620731 59.84303154 -6 71 C-6.33 70.34 -6.66 69.68 -7 69 C-6.2578125 67.1953125 -6.2578125 67.1953125 -5.125 65.125 C-2.59458756 60.47116454 -1.87430514 56.80295947 -1.88647461 51.49707031 C-1.88655014 50.39623108 -1.88662567 49.29539185 -1.88670349 48.16119385 C-1.89186478 46.97878113 -1.89702606 45.79636841 -1.90234375 44.578125 C-1.9037587 43.36300232 -1.90517365 42.14787964 -1.90663147 40.89593506 C-1.91223012 37.01393169 -1.9247824 33.13198594 -1.9375 29.25 C-1.94251517 26.61849042 -1.94707805 23.98697993 -1.95117188 21.35546875 C-1.96219911 14.90362617 -1.97893592 8.4518172 -2 2 C-1.34 2 -0.68 2 0 2 C0 1.34 0 0.68 0 0 Z " fill="#3A4857" transform="translate(615,404)"/>
<path d="M0 0 C7.99597476 2.76249823 13.23393293 9.26142273 16.96875 16.66796875 C22.1164563 28.30880458 22.86438629 40.19844072 18.3359375 52.2421875 C15.15974527 58.79888843 10.26945947 64.04990171 5 69 C4.34 68.67 3.68 68.34 3 68 C3.51949219 67.52691406 4.03898438 67.05382812 4.57421875 66.56640625 C12.50706423 59.04413318 17.51235574 51.07206878 18.18359375 39.9609375 C18.41056371 28.55903503 17.18302542 19.18961957 10 10 C7.41631862 7.43945606 4.76244759 5.05285056 1.9765625 2.71484375 C1.32429687 2.14894531 0.67203125 1.58304687 0 1 C0 0.67 0 0.34 0 0 Z " fill="#1E262E" transform="translate(222,296)"/>
<path d="M0 0 C9.17632078 6.44676939 16.0272604 14.98016274 18.140625 26.125 C18.38611247 27.98088527 18.5453022 29.84790784 18.68359375 31.71484375 C17.69359375 31.21984375 17.69359375 31.21984375 16.68359375 30.71484375 C15.97265625 28.4921875 15.97265625 28.4921875 15.30859375 25.65234375 C12.8800873 16.39291521 9.37040365 9.71055547 1.68359375 3.71484375 C-9.10062049 -2.54495877 -21.43284584 -4.06600985 -33.66796875 -1.61328125 C-36.24774482 -0.90667592 -38.78659193 -0.15252116 -41.31640625 0.71484375 C-32.03970011 -10.14346475 -10.77863142 -5.98005015 0 0 Z " fill="#1D262D" transform="translate(412.31640625,362.28515625)"/>
<path d="M0 0 C35.31 0 70.62 0 107 0 C107 0.33 107 0.66 107 1 C71.69 1 36.38 1 0 1 C0 0.67 0 0.34 0 0 Z " fill="#1C252D" transform="translate(148,488)"/>
<path d="M0 0 C33.33 0 66.66 0 101 0 C101 0.33 101 0.66 101 1 C67.67 1 34.34 1 0 1 C0 0.67 0 0.34 0 0 Z " fill="#04080C" transform="translate(151,469)"/>
<path d="M0 0 C0.33 0 0.66 0 1 0 C1 31.35 1 62.7 1 95 C0.67 95 0.34 95 0 95 C0 63.65 0 32.3 0 0 Z " fill="#05070A" transform="translate(596,360)"/>
<path d="M0 0 C29.7 0 59.4 0 90 0 C90 0.33 90 0.66 90 1 C60.3 1 30.6 1 0 1 C0 0.67 0 0.34 0 0 Z " fill="#18202C" transform="translate(157,383)"/>
<path d="M0 0 C0.66 0.33 1.32 0.66 2 1 C-2.42647059 8.11397059 -2.42647059 8.11397059 -6 10 C-8.67981983 10.52565697 -11.26924563 10.77243714 -14 11 C-14 15.62 -14 20.24 -14 25 C-10.04 25 -6.08 25 -2 25 C-5.86790003 26.93395001 -7.1500459 27.23289353 -11.25 27.125 C-12.8175 27.08375 -14.385 27.0425 -16 27 C-16 21.06 -16 15.12 -16 9 C-14.453125 8.773125 -12.90625 8.54625 -11.3125 8.3125 C-6.50024318 7.36504434 -4.07184869 5.96367573 -1 2 C-0.67 1.34 -0.34 0.68 0 0 Z " fill="#192028" transform="translate(596,459)"/>
<path d="M0 0 C0.33 0 0.66 0 1 0 C1 28.71 1 57.42 1 87 C0.67 87 0.34 87 0 87 C0 58.29 0 29.58 0 0 Z " fill="#010408" transform="translate(500,360)"/>
<path d="M0 0 C0.33 0 0.66 0 1 0 C1 28.71 1 57.42 1 87 C0.67 87 0.34 87 0 87 C0 58.29 0 29.58 0 0 Z " fill="#0F1519" transform="translate(440,360)"/>
<path d="M0 0 C6.27 0 12.54 0 19 0 C19.33 2.64 19.66 5.28 20 8 C20.51949219 7.50628906 21.03898437 7.01257813 21.57421875 6.50390625 C22.27160156 5.86324219 22.96898437 5.22257812 23.6875 4.5625 C24.37199219 3.92441406 25.05648438 3.28632813 25.76171875 2.62890625 C28.22289422 0.83778902 30.00816574 0.37201442 33 0 C31.16962599 2.0337489 29.46484417 3.33738085 27.125 4.8125 C24.54779786 6.6165415 23.14271083 7.87011212 21.25 10.25 C20.5075 11.1575 19.765 12.065 19 13 C18.34 13 17.68 13 17 13 C17 9.04 17 5.08 17 1 C11.72 1 6.44 1 1 1 C0.67 1.66 0.34 2.32 0 3 C0 2.01 0 1.02 0 0 Z " fill="#181F27" transform="translate(442,360)"/>
<path d="M0 0 C4.62 0 9.24 0 14 0 C14 6.27 14 12.54 14 19 C8.39 19 2.78 19 -3 19 C-2.67 18.34 -2.34 17.68 -2 17 C2.62 17 7.24 17 12 17 C12 11.72 12 6.44 12 1 C8.04 1 4.08 1 0 1 C0 0.67 0 0.34 0 0 Z " fill="#1C2329" transform="translate(479,358)"/>
<path d="M0 0 C-0.56847656 0.36351562 -1.13695312 0.72703125 -1.72265625 1.1015625 C-6.83110042 4.4275946 -11.41556698 7.9886211 -16 12 C-16.33 12 -16.66 12 -17 12 C-17 8.37 -17 4.74 -17 1 C-22.61 1 -28.22 1 -34 1 C-34 0.67 -34 0.34 -34 0 C-27.73 0 -21.46 0 -15 0 C-14.67 2.64 -14.34 5.28 -14 8 C-13.32904297 7.27683594 -13.32904297 7.27683594 -12.64453125 6.5390625 C-4.31884058 -2.15942029 -4.31884058 -2.15942029 0 0 Z " fill="#192129" transform="translate(537,360)"/>
<path d="M0 0 C2 3 2 3 3 11 C-3.6 11 -10.2 11 -17 11 C-17.66 7.7 -18.32 4.4 -19 1 C-17.515 1.99 -17.515 1.99 -16 3 C-15.67 4.98 -15.34 6.96 -15 9 C-9.72 9 -4.44 9 1 9 C0.67 6.03 0.34 3.06 0 0 Z " fill="#1F2932" transform="translate(697,377)"/>
<path d="M0 0 C6.27 0 12.54 0 19 0 C19 0.66 19 1.32 19 2 C13.39 2 7.78 2 2 2 C2.66 5.3 3.32 8.6 4 12 C1 9 1 9 0 7 C0 4.69 0 2.38 0 0 Z " fill="#1D242E" transform="translate(628,422)"/>
<path d="M0 0 C0.48855469 0.52980469 0.97710937 1.05960937 1.48046875 1.60546875 C2.69131242 2.52591737 3.92083217 3.42232623 5.16796875 4.29296875 C5.79058594 4.72996094 6.41320312 5.16695313 7.0546875 5.6171875 C7.52519531 5.94332031 7.99570313 6.26945312 8.48046875 6.60546875 C8.15046875 7.26546875 7.82046875 7.92546875 7.48046875 8.60546875 C6.44921875 7.82171875 5.41796875 7.03796875 4.35546875 6.23046875 C-2.49808895 1.40709017 -9.34026106 1.10840122 -17.51953125 0.60546875 C-17.18953125 -0.05453125 -16.85953125 -0.71453125 -16.51953125 -1.39453125 C-14.15625 -1.84375 -14.15625 -1.84375 -11.20703125 -2.08203125 C-10.24152344 -2.16839844 -9.27601563 -2.25476563 -8.28125 -2.34375 C-4.85015826 -2.40683938 -2.58449236 -2.37188631 0 0 Z " fill="#2C3844" transform="translate(212.51953125,305.39453125)"/>
<path d="M0 0 C2.89396771 2.30033331 3.82767735 3.48303205 5 7 C5.03954234 9.33299825 5.04401732 11.66708189 5 14 C4.34 14 3.68 14 3 14 C2.89042969 13.30132812 2.78085937 12.60265625 2.66796875 11.8828125 C2.50941406 10.97273438 2.35085938 10.06265625 2.1875 9.125 C2.03667969 8.22007812 1.88585937 7.31515625 1.73046875 6.3828125 C1.16948699 3.65587522 1.16948699 3.65587522 -2 2 C-4.73872955 1.54227937 -4.73872955 1.54227937 -7.6875 1.375 C-8.68136719 1.30023438 -9.67523437 1.22546875 -10.69921875 1.1484375 C-11.45847656 1.09945313 -12.21773437 1.05046875 -13 1 C-8.94136113 -3.05863887 -4.93984715 -1.87236142 0 0 Z " fill="#29333C" transform="translate(615,323)"/>
<path d="M0 0 C0.33 0 0.66 0 1 0 C1 15.84 1 31.68 1 48 C0.67 48 0.34 48 0 48 C0 32.16 0 16.32 0 0 Z " fill="#020508" transform="translate(462,399)"/>
<path d="M0 0 C0.33 0 0.66 0 1 0 C1 15.51 1 31.02 1 47 C0.67 47 0.34 47 0 47 C0 31.49 0 15.98 0 0 Z " fill="#080D12" transform="translate(280,416)"/>
<path d="M0 0 C0.33 0.99 0.66 1.98 1 3 C14.2 3 27.4 3 41 3 C41.33 2.34 41.66 1.68 42 1 C42 1.99 42 2.98 42 4 C28.14 4 14.28 4 0 4 C0 2.68 0 1.36 0 0 Z " fill="#090E14" transform="translate(370,390)"/>
<path d="M0 0 C0.33 0 0.66 0 1 0 C1 15.18 1 30.36 1 46 C0.67 46 0.34 46 0 46 C0 30.82 0 15.64 0 0 Z " fill="#2D3947" transform="translate(260,417)"/>
<path d="M0 0 C0.33 0.66 0.66 1.32 1 2 C-0.423125 2.86625 -0.423125 2.86625 -1.875 3.75 C-4.93446106 5.95281196 -5.53902363 6.76498089 -7 10 C-9.47161042 12.14206236 -12.04028874 13.62584834 -15 15 C-11.89669851 7.66492376 -6.72512143 3.77140805 0 0 Z " fill="#2D3A49" transform="translate(182,294)"/>
<path d="M0 0 C0 3 0 3 -1.5625 4.625 C-4.88057608 6.49673522 -7.17525405 6.93625423 -11 7 C-13.83939667 5.93584783 -16.40889849 4.56812118 -19 3 C-18.67 2.34 -18.34 1.68 -18 1 C-16.515 1.99 -16.515 1.99 -15 3 C-12.13067837 3.35554057 -12.13067837 3.35554057 -9 3.3125 C-7.948125 3.32925781 -6.89625 3.34601563 -5.8125 3.36328125 C-2.96827709 3.24605735 -2.96827709 3.24605735 -1.125 1.48046875 C-0.75375 0.99191406 -0.3825 0.50335938 0 0 Z " fill="#343E47" transform="translate(617,339)"/>
<path d="M0 0 C0.33 0 0.66 0 1 0 C1.33 5.61 1.66 11.22 2 17 C1.34 17 0.68 17 0 17 C0 22.28 0 27.56 0 33 C-0.33 33 -0.66 33 -1 33 C-1.09920291 21.94438708 -1.12520495 11.01093413 0 0 Z " fill="#35424F" transform="translate(615,425)"/>
<path d="M0 0 C10.89 0 21.78 0 33 0 C33 0.33 33 0.66 33 1 C22.11 1 11.22 1 0 1 C0 0.67 0 0.34 0 0 Z " fill="#05090F" transform="translate(191,430)"/>
<path d="M0 0 C0.33 0 0.66 0 1 0 C1.08076963 2.45898655 1.14037143 4.91533742 1.1875 7.375 C1.22520508 8.42300781 1.22520508 8.42300781 1.26367188 9.4921875 C1.29296875 11.5234375 1.29296875 11.5234375 1 15 C0.01 15.66 -0.98 16.32 -2 17 C-2.33 16.01 -2.66 15.02 -3 14 C-2.34 14 -1.68 14 -1 14 C-0.67 9.38 -0.34 4.76 0 0 Z " fill="#55697F" transform="translate(563,430)"/>
<path d="M0 0 C2 4 2 4 3 7 C2.34 7 1.68 7 1 7 C1 11.29 1 15.58 1 20 C0.67 20 0.34 20 0 20 C0 13.4 0 6.8 0 0 Z " fill="#4D5F72" transform="translate(614,418)"/>
<path d="M0 0 C0.99 0.33 1.98 0.66 3 1 C1.73113036 2.12721436 0.45982438 3.25168658 -0.8125 4.375 C-1.52019531 5.00148438 -2.22789062 5.62796875 -2.95703125 6.2734375 C-5 8 -5 8 -8 10 C-6.56854369 4.98990293 -4.17048478 2.89380576 0 0 Z " fill="#506881" transform="translate(641,364)"/>
<path d="M0 0 C0.66 0 1.32 0 2 0 C3.37432457 3.81756824 2.67975039 7.07255329 2 11 C1.34 10.67 0.68 10.34 0 10 C0 6.7 0 3.4 0 0 Z " fill="#323F4C" transform="translate(614,381)"/>
<path d="M0 0 C6.27 0 12.54 0 19 0 C19 0.33 19 0.66 19 1 C12.73 1 6.46 1 0 1 C0 0.67 0 0.34 0 0 Z " fill="#181E27" transform="translate(628,420)"/>
<path d="M0 0 C6.27 0 12.54 0 19 0 C19 0.33 19 0.66 19 1 C12.73 1 6.46 1 0 1 C0 0.67 0 0.34 0 0 Z " fill="#12191F" transform="translate(680,389)"/>
<path d="M0 0 C5.28 0 10.56 0 16 0 C15.67 0.66 15.34 1.32 15 2 C10.05 1.67 5.1 1.34 0 1 C0 0.67 0 0.34 0 0 Z " fill="#455568" transform="translate(505,448)"/>
<path d="M0 0 C2.97 0.495 2.97 0.495 6 1 C5.67 1.99 5.34 2.98 5 4 C2.03 3.505 2.03 3.505 -1 3 C-0.67 2.01 -0.34 1.02 0 0 Z " fill="#3C4D5D" transform="translate(648,445)"/>
<path d="M0 0 C2.45823172 3.68734758 3.01242616 6.69699971 4 11 C2.29159719 9.36587557 1.06546953 8.13093906 0 6 C-0.039992 4.00039988 -0.04346799 1.99952758 0 0 Z " fill="#242B31" transform="translate(628,423)"/>
<path d="M0 0 C5.94 0 11.88 0 18 0 C18 0.33 18 0.66 18 1 C12.06 1 6.12 1 0 1 C0 0.67 0 0.34 0 0 Z " fill="#10161D" transform="translate(503,358)"/>
<path d="M0 0 C5.94 0 11.88 0 18 0 C18 0.33 18 0.66 18 1 C12.06 1 6.12 1 0 1 C0 0.67 0 0.34 0 0 Z " fill="#0F151D" transform="translate(442,358)"/>
<path d="M0 0 C0.33 0 0.66 0 1 0 C1 2.31 1 4.62 1 7 C1.66 7.33 2.32 7.66 3 8 C1.68 8.99 0.36 9.98 -1 11 C-1.66 10.67 -2.32 10.34 -3 10 C-2.34 9.01 -1.68 8.02 -1 7 C-0.60612212 4.67612053 -0.26513915 2.34206251 0 0 Z " fill="#556A82" transform="translate(617,330)"/>
<path d="M0 0 C5.94 0 11.88 0 18 0 C18 0.33 18 0.66 18 1 C12.06 1 6.12 1 0 1 C0 0.67 0 0.34 0 0 Z " fill="#0C1118" transform="translate(318,321)"/>
<path d="M0 0 C0.33 0 0.66 0 1 0 C1 5.61 1 11.22 1 17 C0.67 17 0.34 17 0 17 C0 11.39 0 5.78 0 0 Z " fill="#020203" transform="translate(578,469)"/>
<path d="M0 0 C5.61 0 11.22 0 17 0 C17 0.33 17 0.66 17 1 C11.39 1 5.78 1 0 1 C0 0.67 0 0.34 0 0 Z " fill="#435467" transform="translate(443,448)"/>
<path d="M0 0 C5.61 0 11.22 0 17 0 C17 0.33 17 0.66 17 1 C11.39 1 5.78 1 0 1 C0 0.67 0 0.34 0 0 Z " fill="#11161A" transform="translate(193,374)"/>
<path d="M0 0 C0.33 0 0.66 0 1 0 C1 5.61 1 11.22 1 17 C0.67 17 0.34 17 0 17 C0 11.39 0 5.78 0 0 Z " fill="#000000" transform="translate(494,359)"/>
<path d="M0 0 C5.61 0 11.22 0 17 0 C17 0.33 17 0.66 17 1 C11.39 1 5.78 1 0 1 C0 0.67 0 0.34 0 0 Z " fill="#0F151D" transform="translate(599,358)"/>
<path d="M0 0 C5.28 0 10.56 0 16 0 C16 0.33 16 0.66 16 1 C10.72 1 5.44 1 0 1 C0 0.67 0 0.34 0 0 Z " fill="#455669" transform="translate(563,448)"/>
<path d="M0 0 C5.28 0 10.56 0 16 0 C16 0.33 16 0.66 16 1 C10.72 1 5.44 1 0 1 C0 0.67 0 0.34 0 0 Z " fill="#445669" transform="translate(318,448)"/>
<path d="M0 0 C5.28 0 10.56 0 16 0 C16 0.33 16 0.66 16 1 C10.72 1 5.44 1 0 1 C0 0.67 0 0.34 0 0 Z " fill="#13181C" transform="translate(193,288)"/>
<path d="M0 0 C4.95 0 9.9 0 15 0 C15 0.33 15 0.66 15 1 C10.05 1 5.1 1 0 1 C0 0.67 0 0.34 0 0 Z " fill="#314254" transform="translate(207,448)"/>
<path d="M0 0 C0.33 0 0.66 0 1 0 C1 4.95 1 9.9 1 15 C0.67 15 0.34 15 0 15 C0 10.05 0 5.1 0 0 Z " fill="#0E141A" transform="translate(433,394)"/>
<path d="M0 0 C0.33 0 0.66 0 1 0 C1 4.62 1 9.24 1 14 C0.67 14 0.34 14 0 14 C0 9.38 0 4.76 0 0 Z " fill="#0C1016" transform="translate(189,433)"/>
<path d="M0 0 C4.62 0 9.24 0 14 0 C14 0.33 14 0.66 14 1 C9.38 1 4.76 1 0 1 C0 0.67 0 0.34 0 0 Z " fill="#070A0D" transform="translate(656,355)"/>
<path d="M0 0 C0.33 0.66 0.66 1.32 1 2 C-2.96 2 -6.92 2 -11 2 C-11 1.67 -11 1.34 -11 1 C-5.555 0.505 -5.555 0.505 0 0 Z " fill="#060708" transform="translate(430,420)"/>
<path d="M0 0 C4.29 0 8.58 0 13 0 C13 0.33 13 0.66 13 1 C8.71 1 4.42 1 0 1 C0 0.67 0 0.34 0 0 Z " fill="#0E1215" transform="translate(479,356)"/>
<path d="M0 0 C0.33 0 0.66 0 1 0 C1 4.29 1 8.58 1 13 C0.67 13 0.34 13 0 13 C0 8.71 0 4.42 0 0 Z " fill="#242E39" transform="translate(158,325)"/>
<path d="M0 0 C0.33 0 0.66 0 1 0 C1 3.96 1 7.92 1 12 C0.67 12 0.34 12 0 12 C0 8.04 0 4.08 0 0 Z " fill="#090C0F" transform="translate(617,448)"/>
<path d="M0 0 C0.33 0 0.66 0 1 0 C1 3.96 1 7.92 1 12 C0.67 12 0.34 12 0 12 C0 8.04 0 4.08 0 0 Z " fill="#161B1E" transform="translate(703,415)"/>
<path d="M0 0 C0.33 0 0.66 0 1 0 C1 3.3 1 6.6 1 10 C0.67 10 0.34 10 0 10 C-1.125 3.375 -1.125 3.375 0 0 Z " fill="#3D4A59" transform="translate(618,415)"/>
<path d="M0 0 C0.33 0 0.66 0 1 0 C1 3.96 1 7.92 1 12 C0.67 12 0.34 12 0 12 C0 8.04 0 4.08 0 0 Z " fill="#0C1014" transform="translate(244,326)"/>
<path d="M0 0 C3.96 0 7.92 0 12 0 C12 0.33 12 0.66 12 1 C8.04 1 4.08 1 0 1 C0 0.67 0 0.34 0 0 Z " fill="#202A33" transform="translate(195,307)"/>
<path d="M0 0 C3.63 0 7.26 0 11 0 C11 0.33 11 0.66 11 1 C7.37 1 3.74 1 0 1 C0 0.67 0 0.34 0 0 Z " fill="#121519" transform="translate(479,377)"/>
<path d="M0 0 C0.99 1.485 0.99 1.485 2 3 C2.66 3.33 3.32 3.66 4 4 C3.01 4.33 2.02 4.66 1 5 C0.67 5.66 0.34 6.32 0 7 C0 4.69 0 2.38 0 0 Z " fill="#0B0E12" transform="translate(462,360)"/>
<path d="M0 0 C3.63 0 7.26 0 11 0 C11 0.33 11 0.66 11 1 C7.37 1 3.74 1 0 1 C0 0.67 0 0.34 0 0 Z " fill="#101519" transform="translate(385,355)"/>
<path d="M0 0 C3.3 0 6.6 0 10 0 C10 0.33 10 0.66 10 1 C6.7 1 3.4 1 0 1 C0 0.67 0 0.34 0 0 Z " fill="#161E26" transform="translate(661,433)"/>
<path d="M0 0 C3.3 0 6.6 0 10 0 C10 0.33 10 0.66 10 1 C6.7 1 3.4 1 0 1 C0 0.67 0 0.34 0 0 Z " fill="#0D1015" transform="translate(657,374)"/>
<path d="M0 0 C2.97 0 5.94 0 9 0 C9 0.33 9 0.66 9 1 C6.03 1 3.06 1 0 1 C0 0.67 0 0.34 0 0 Z " fill="#14191F" transform="translate(580,487)"/>
<path d="M0 0 C2.97 0 5.94 0 9 0 C9 0.33 9 0.66 9 1 C6.03 1 3.06 1 0 1 C0 0.67 0 0.34 0 0 Z " fill="#354456" transform="translate(192,448)"/>
<path d="M0 0 C2.97 0 5.94 0 9 0 C9 0.33 9 0.66 9 1 C6.03 1 3.06 1 0 1 C0 0.67 0 0.34 0 0 Z " fill="#1D232C" transform="translate(542,355)"/>
<path d="M0 0 C2.64 0 5.28 0 8 0 C8 0.33 8 0.66 8 1 C5.36 1 2.72 1 0 1 C0 0.67 0 0.34 0 0 Z " fill="#060A0D" transform="translate(197,356)"/>
<path d="M0 0 C0.33 0 0.66 0 1 0 C1 2.64 1 5.28 1 8 C0.67 8 0.34 8 0 8 C0 5.36 0 2.72 0 0 Z " fill="#090E11" transform="translate(225,328)"/>
<path d="M0 0 C0.33 0 0.66 0 1 0 C1 2.31 1 4.62 1 7 C0.67 7 0.34 7 0 7 C0 4.69 0 2.38 0 0 Z " fill="#000000" transform="translate(617,425)"/>
<path d="M0 0 C0.33 0 0.66 0 1 0 C1 2.31 1 4.62 1 7 C0.67 7 0.34 7 0 7 C0 4.69 0 2.38 0 0 Z " fill="#475566" transform="translate(618,394)"/>
<path d="M0 0 C2.31 0 4.62 0 7 0 C7 0.33 7 0.66 7 1 C4.69 1 2.38 1 0 1 C0 0.67 0 0.34 0 0 Z " fill="#000103" transform="translate(539,376)"/>
<path d="M0 0 C2.31 0 4.62 0 7 0 C7 0.33 7 0.66 7 1 C4.69 1 2.38 1 0 1 C0 0.67 0 0.34 0 0 Z " fill="#07090B" transform="translate(387,374)"/>
<path d="M0 0 C0.33 0 0.66 0 1 0 C1 2.31 1 4.62 1 7 C0.67 7 0.34 7 0 7 C0 4.69 0 2.38 0 0 Z " fill="#121619" transform="translate(621,330)"/>
<path d="M0 0 C1.98 0 3.96 0 6 0 C6 0.33 6 0.66 6 1 C4.02 1 2.04 1 0 1 C0 0.67 0 0.34 0 0 Z " fill="#000000" transform="translate(412,421)"/>
<path d="M0 0 C0.33 0 0.66 0 1 0 C1 1.98 1 3.96 1 6 C0.67 6 0.34 6 0 6 C0 4.02 0 2.04 0 0 Z " fill="#151C23" transform="translate(678,382)"/>
<path d="M0 0 C0.33 0 0.66 0 1 0 C1 1.98 1 3.96 1 6 C0.67 6 0.34 6 0 6 C0 4.02 0 2.04 0 0 Z " fill="#29323A" transform="translate(177,325)"/>
<path d="M0 0 C1.65 0 3.3 0 5 0 C5 0.33 5 0.66 5 1 C3.35 1 1.7 1 0 1 C0 0.67 0 0.34 0 0 Z " fill="#080F17" transform="translate(581,466)"/>
<path d="M0 0 C1.65 0 3.3 0 5 0 C5 0.33 5 0.66 5 1 C3.35 1 1.7 1 0 1 C0 0.67 0 0.34 0 0 Z " fill="#363F4A" transform="translate(391,452)"/>
<path d="M0 0 C0 0.99 0 1.98 0 3 C-0.66 2.67 -1.32 2.34 -2 2 C-1.34 1.34 -0.68 0.68 0 0 Z " fill="#12171B" transform="translate(697,438)"/>
<path d="M0 0 C1.65 0 3.3 0 5 0 C5 0.33 5 0.66 5 1 C3.35 1 1.7 1 0 1 C0 0.67 0 0.34 0 0 Z " fill="#121519" transform="translate(232,420)"/>
<path d="M0 0 C0.33 0 0.66 0 1 0 C1 1.65 1 3.3 1 5 C0.67 5 0.34 5 0 5 C0 3.35 0 1.7 0 0 Z " fill="#141B22" transform="translate(432,389)"/>
<path d="M0 0 C0.33 0 0.66 0 1 0 C1 1.65 1 3.3 1 5 C0.67 5 0.34 5 0 5 C0 3.35 0 1.7 0 0 Z " fill="#2B3844" transform="translate(648,381)"/>
<path d="M0 0 C0.66 0.33 1.32 0.66 2 1 C1.01 1.66 0.02 2.32 -1 3 C-0.67 2.01 -0.34 1.02 0 0 Z " fill="#1D2230" transform="translate(650,377)"/>
<path d="M0 0 C1.65 0 3.3 0 5 0 C5 0.33 5 0.66 5 1 C3.35 1 1.7 1 0 1 C0 0.67 0 0.34 0 0 Z " fill="#13191D" transform="translate(537,356)"/>
<path d="M0 0 C1.65 0 3.3 0 5 0 C5 0.33 5 0.66 5 1 C3.35 1 1.7 1 0 1 C0 0.67 0 0.34 0 0 Z " fill="#12181D" transform="translate(380,356)"/>
<path d="M0 0 C0.33 0 0.66 0 1 0 C1 1.65 1 3.3 1 5 C0.67 5 0.34 5 0 5 C0 3.35 0 1.7 0 0 Z " fill="#212A31" transform="translate(177,334)"/>
<path d="M0 0 C4 1 4 1 4 1 Z " fill="#171E24" transform="translate(591,486)"/>
<path d="M0 0 C0.99 0.33 1.98 0.66 3 1 C2.01 1 1.02 1 0 1 C0 0.67 0 0.34 0 0 Z " fill="#181E25" transform="translate(145,467)"/>
<path d="M0 0 C1 4 1 4 1 4 Z " fill="#101519" transform="translate(279,464)"/>
<path d="M0 0 C1 4 1 4 1 4 Z " fill="#151D24" transform="translate(123,463)"/>
<path d="M0 0 C4 1 4 1 4 1 Z " fill="#404B57" transform="translate(664,452)"/>
<path d="M0 0 C4 1 4 1 4 1 Z " fill="#12181D" transform="translate(653,451)"/>
<path d="M0 0 C4 1 4 1 4 1 Z " fill="#171D25" transform="translate(402,451)"/>
<path d="M0 0 C4 1 4 1 4 1 Z " fill="#0D1215" transform="translate(381,451)"/>
<path d="M0 0 C0.99 1.485 0.99 1.485 2 3 C1.34 3 0.68 3 0 3 C0 2.01 0 1.02 0 0 Z " fill="#14191E" transform="translate(617,444)"/>
<path d="M0 0 C4 1 4 1 4 1 Z " fill="#1B242B" transform="translate(656,432)"/>
<path d="M0 0 C4 1 4 1 4 1 Z " fill="#171F25" transform="translate(396,432)"/>
<path d="M0 0 C4 1 4 1 4 1 Z " fill="#242D37" transform="translate(386,432)"/>
<path d="M0 0 C1 4 1 4 1 4 Z " fill="#010102" transform="translate(682,421)"/>
<path d="M0 0 C1 4 1 4 1 4 Z " fill="#202833" transform="translate(626,423)"/>
<path d="M0 0 C1 4 1 4 1 4 Z " fill="#161B22" transform="translate(349,417)"/>
<path d="M0 0 C1 4 1 4 1 4 Z " fill="#182129" transform="translate(370,413)"/>
<path d="M0 0 C1 4 1 4 1 4 Z " fill="#131A24" transform="translate(348,413)"/>
<path d="M0 0 C4 1 4 1 4 1 Z " fill="#161B20" transform="translate(669,413)"/>
<path d="M0 0 C4 1 4 1 4 1 Z " fill="#192025" transform="translate(659,411)"/>
<path d="M0 0 C1 4 1 4 1 4 Z " fill="#0D1218" transform="translate(348,391)"/>
<path d="M0 0 C4 1 4 1 4 1 Z " fill="#1C242B" transform="translate(667,392)"/>
<path d="M0 0 C1 4 1 4 1 4 Z " fill="#1F2A33" transform="translate(701,383)"/>
<path d="M0 0 C1 4 1 4 1 4 Z " fill="#10151B" transform="translate(626,383)"/>
<path d="M0 0 C1 4 1 4 1 4 Z " fill="#12191D" transform="translate(580,383)"/>
<path d="M0 0 C0.66 0.33 1.32 0.66 2 1 C1.01 1 0.02 1 -1 1 C-0.67 0.67 -0.34 0.34 0 0 Z " fill="#28323A" transform="translate(469,381)"/>
<path d="M0 0 C0.99 0.495 0.99 0.495 2 1 C1.67 1.66 1.34 2.32 1 3 C0.67 2.01 0.34 1.02 0 0 Z " fill="#26313A" transform="translate(406,381)"/>
<path d="M0 0 C0 3 0 3 0 3 Z " fill="#232C36" transform="translate(375,380)"/>
<path d="M0 0 C1 4 1 4 1 4 Z " fill="#121A20" transform="translate(627,376)"/>
<path d="M0 0 C0.66 0.33 1.32 0.66 2 1 C1.01 1 0.02 1 -1 1 C-0.67 0.67 -0.34 0.34 0 0 Z " fill="#161C21" transform="translate(377,378)"/>
<path d="M0 0 C0.99 0.33 1.98 0.66 3 1 C2.01 1 1.02 1 0 1 C0 0.67 0 0.34 0 0 Z " fill="#1D242A" transform="translate(401,377)"/>
<path d="M0 0 C4 1 4 1 4 1 Z " fill="#1B2329" transform="translate(667,375)"/>
<path d="M0 0 C4 1 4 1 4 1 Z " fill="#0E1215" transform="translate(394,375)"/>
<path d="M0 0 C4 1 4 1 4 1 Z " fill="#2F3A47" transform="translate(188,373)"/>
<path d="M0 0 C4 1 4 1 4 1 Z " fill="#12181D" transform="translate(671,356)"/>
<path d="M0 0 C4 1 4 1 4 1 Z " fill="#161D22" transform="translate(651,356)"/>
<path d="M0 0 C4 1 4 1 4 1 Z " fill="#141A1F" transform="translate(552,356)"/>
<path d="M0 0 C4 1 4 1 4 1 Z " fill="#0B0F11" transform="translate(397,356)"/>
<path d="M0 0 C1 4 1 4 1 4 Z " fill="#161C21" transform="translate(243,339)"/>
<path d="M0 0 C1 4 1 4 1 4 Z " fill="#1E262E" transform="translate(224,336)"/>
<path d="M0 0 C1 4 1 4 1 4 Z " fill="#1A2127" transform="translate(224,324)"/>
<path d="M0 0 C1 4 1 4 1 4 Z " fill="#0D1114" transform="translate(243,321)"/>
<path d="M0 0 C4 1 4 1 4 1 Z " fill="#101519" transform="translate(209,289)"/>
<path d="M0 0 C3 1 3 1 3 1 Z " fill="#090E0F" transform="translate(258,487)"/>
<path d="" fill="#101519" transform="translate(0,0)"/>
<path d="" fill="#0B0E0F" transform="translate(0,0)"/>
<path d="" fill="#1B242B" transform="translate(0,0)"/>
<path d="" fill="#1F262E" transform="translate(0,0)"/>
<path d="M0 0 C3 1 3 1 3 1 Z " fill="#12191D" transform="translate(235,456)"/>
<path d="M0 0 C3 1 3 1 3 1 Z " fill="#14171B" transform="translate(231,456)"/>
<path d="M0 0 C3 1 3 1 3 1 Z " fill="#0B0E12" transform="translate(675,451)"/>
<path d="M0 0 C3 1 3 1 3 1 Z " fill="#1A2023" transform="translate(650,450)"/>
<path d="M0 0 C3 1 3 1 3 1 Z " fill="#1C232A" transform="translate(378,450)"/>
<path d="M0 0 C3 1 3 1 3 1 Z " fill="#28333C" transform="translate(647,449)"/>
<path d="M0 0 C0.66 0 1.32 0 2 0 C1.67 0.66 1.34 1.32 1 2 C0.67 1.34 0.34 0.68 0 0 Z " fill="#1F2832" transform="translate(223,448)"/>
<path d="M0 0 C0.33 0.66 0.66 1.32 1 2 C0.34 1.67 -0.32 1.34 -1 1 C-0.67 0.67 -0.34 0.34 0 0 Z " fill="#0F141B" transform="translate(693,442)"/>
<path d="M0 0 C3 1 3 1 3 1 Z " fill="#1A1F28" transform="translate(672,432)"/>
<path d="M0 0 C3 1 3 1 3 1 Z " fill="#262F37" transform="translate(400,431)"/>
<path d="M0 0 C3 1 3 1 3 1 Z " fill="#14191F" transform="translate(383,431)"/>
<path d="" fill="#181C21" transform="translate(0,0)"/>
<path d="M0 0 C0.33 0.66 0.66 1.32 1 2 C0.34 1.67 -0.32 1.34 -1 1 C-0.67 0.67 -0.34 0.34 0 0 Z " fill="#1D232C" transform="translate(407,427)"/>
<path d="" fill="#1B232D" transform="translate(0,0)"/>
<path d="M0 0 C0.66 0 1.32 0 2 0 C1.67 0.66 1.34 1.32 1 2 C0.67 1.34 0.34 0.68 0 0 Z " fill="#202831" transform="translate(241,424)"/>
<path d="" fill="#151C24" transform="translate(0,0)"/>
<path d="" fill="#14191F" transform="translate(0,0)"/>
<path d="" fill="#11161B" transform="translate(0,0)"/>
<path d="" fill="#0C1115" transform="translate(0,0)"/>
<path d="" fill="#0B0E11" transform="translate(0,0)"/>
<path d="" fill="#12151A" transform="translate(0,0)"/>
<path d="M0 0 C3 1 3 1 3 1 Z " fill="#11161B" transform="translate(656,410)"/>
<path d="M0 0 C3 1 3 1 3 1 Z " fill="#12171D" transform="translate(653,409)"/>
<path d="M0 0 C3 1 3 1 3 1 Z " fill="#151B21" transform="translate(645,407)"/>
<path d="" fill="#475567" transform="translate(0,0)"/>
<path d="M0 0 C3 1 3 1 3 1 Z " fill="#1F2932" transform="translate(246,403)"/>
<path d="M0 0 C3 1 3 1 3 1 Z " fill="#1C2329" transform="translate(243,402)"/>
<path d="M0 0 C3 1 3 1 3 1 Z " fill="#252D36" transform="translate(156,402)"/>
<path d="M0 0 C3 1 3 1 3 1 Z " fill="#0E1318" transform="translate(680,395)"/>
<path d="M0 0 C3 1 3 1 3 1 Z " fill="#131923" transform="translate(671,393)"/>
<path d="" fill="#334251" transform="translate(0,0)"/>
<path d="" fill="#1D242B" transform="translate(0,0)"/>
<path d="M0 0 C3 1 3 1 3 1 Z " fill="#252F3A" transform="translate(657,390)"/>
<path d="M0 0 C3 1 3 1 3 1 Z " fill="#1D282D" transform="translate(654,389)"/>
<path d="" fill="#14191F" transform="translate(0,0)"/>
<path d="" fill="#0C1114" transform="translate(0,0)"/>
<path d="" fill="#192129" transform="translate(0,0)"/>
<path d="" fill="#14191F" transform="translate(0,0)"/>
<path d="" fill="#171F26" transform="translate(0,0)"/>
<path d="M0 0 C3 1 3 1 3 1 Z " fill="#1C2228" transform="translate(473,379)"/>
<path d="" fill="#111518" transform="translate(0,0)"/>
<path d="M0 0 C3 1 3 1 3 1 Z " fill="#21292F" transform="translate(476,378)"/>
<path d="M0 0 C3 1 3 1 3 1 Z " fill="#212A32" transform="translate(654,375)"/>
<path d="M0 0 C3 1 3 1 3 1 Z " fill="#101417" transform="translate(383,375)"/>
<path d="M0 0 C3 1 3 1 3 1 Z " fill="#313F4E" transform="translate(210,373)"/>
<path d="M0 0 C0.33 0.66 0.66 1.32 1 2 C0.34 1.67 -0.32 1.34 -1 1 C-0.67 0.67 -0.34 0.34 0 0 Z " fill="#14191C" transform="translate(229,363)"/>
<path d="M0 0 C0.99 0.495 0.99 0.495 2 1 C1.01 1.495 1.01 1.495 0 2 C0 1.34 0 0.68 0 0 Z " fill="#181B20" transform="translate(617,361)"/>
<path d="M0 0 C3 1 3 1 3 1 Z " fill="#131A1D" transform="translate(675,357)"/>
<path d="M0 0 C3 1 3 1 3 1 Z " fill="#0C1315" transform="translate(648,357)"/>
<path d="M0 0 C3 1 3 1 3 1 Z " fill="#151C20" transform="translate(556,357)"/>
<path d="M0 0 C3 1 3 1 3 1 Z " fill="#29323A" transform="translate(475,357)"/>
<path d="M0 0 C3 1 3 1 3 1 Z " fill="#0A0F10" transform="translate(401,357)"/>
<path d="M0 0 C3 1 3 1 3 1 Z " fill="#1C2229" transform="translate(377,357)"/>
<path d="M0 0 C3 1 3 1 3 1 Z " fill="#111920" transform="translate(206,355)"/>
<path d="M0 0 C3 1 3 1 3 1 Z " fill="#0E141A" transform="translate(194,355)"/>
<path d="M0 0 C3 1 3 1 3 1 Z " fill="#414C55" transform="translate(606,347)"/>
<path d="M0 0 C3 1 3 1 3 1 Z " fill="#1F242A" transform="translate(610,346)"/>
<path d="M0 0 C3 1 3 1 3 1 Z " fill="#121619" transform="translate(603,346)"/>
<path d="" fill="#1C262D" transform="translate(0,0)"/>
<path d="" fill="#161A1D" transform="translate(0,0)"/>
<path d="M0 0 C3 1 3 1 3 1 Z " fill="#11191B" transform="translate(610,320)"/>
<path d="M0 0 C3 1 3 1 3 1 Z " fill="#0A0D10" transform="translate(604,320)"/>
<path d="" fill="#070C10" transform="translate(0,0)"/>
<path d="" fill="#12181C" transform="translate(0,0)"/>
<path d="" fill="#1C232B" transform="translate(0,0)"/>
<path d="M0 0 C3 1 3 1 3 1 Z " fill="#131D28" transform="translate(207,308)"/>
<path d="M0 0 C3 1 3 1 3 1 Z " fill="#18202C" transform="translate(192,308)"/>
<path d="M0 0 C3 1 3 1 3 1 Z " fill="#151B24" transform="translate(190,289)"/>
<path d="M0 0 C2 1 2 1 2 1 Z " fill="#101315" transform="translate(142,487)"/>
<path d="M0 0 C2 1 2 1 2 1 Z " fill="#0A0D10" transform="translate(261,486)"/>
<path d="M0 0 C2 1 2 1 2 1 Z " fill="#0B0D0F" transform="translate(140,486)"/>
<path d="M0 0 C2 1 2 1 2 1 Z " fill="#1C2026" transform="translate(595,485)"/>
<path d="M0 0 C2 1 2 1 2 1 Z " fill="#0B0D0F" transform="translate(263,485)"/>
<path d="M0 0 C2 1 2 1 2 1 Z " fill="#1D2128" transform="translate(138,485)"/>
<path d="M0 0 C2 1 2 1 2 1 Z " fill="#12171C" transform="translate(597,484)"/>
<path d="M0 0 C2 1 2 1 2 1 Z " fill="#12191D" transform="translate(601,482)"/>
<path d="M0 0 C2 1 2 1 2 1 Z " fill="#20282C" transform="translate(268,482)"/>
<path d="" fill="#161C20" transform="translate(0,0)"/>
<path d="" fill="#19252E" transform="translate(0,0)"/>
<path d="" fill="#364351" transform="translate(0,0)"/>
<path d="" fill="#191F2A" transform="translate(0,0)"/>
<path d="" fill="#181C23" transform="translate(0,0)"/>
<path d="" fill="#1D242B" transform="translate(0,0)"/>
<path d="" fill="#181E24" transform="translate(0,0)"/>
<path d="" fill="#171B22" transform="translate(0,0)"/>
<path d="" fill="#0E1218" transform="translate(0,0)"/>
<path d="M0 0 C2 1 2 1 2 1 Z " fill="#202931" transform="translate(256,467)"/>
<path d="" fill="#0B0F11" transform="translate(0,0)"/>
<path d="" fill="#040C0F" transform="translate(0,0)"/>
<path d="M0 0 C2 1 2 1 2 1 Z " fill="#222830" transform="translate(590,464)"/>
<path d="" fill="#070B0D" transform="translate(0,0)"/>
<path d="" fill="#262E37" transform="translate(0,0)"/>
<path d="" fill="#1A2028" transform="translate(0,0)"/>
<path d="M0 0 C2 1 2 1 2 1 Z " fill="#303C4B" transform="translate(229,455)"/>
<path d="" fill="#0E1215" transform="translate(0,0)"/>
<path d="M0 0 C2 1 2 1 2 1 Z " fill="#0E1114" transform="translate(679,450)"/>
<path d="M0 0 C2 1 2 1 2 1 Z " fill="#111518" transform="translate(406,450)"/>
<path d="M0 0 C2 1 2 1 2 1 Z " fill="#0C0E11" transform="translate(681,449)"/>
<path d="M0 0 C2 1 2 1 2 1 Z " fill="#0F1315" transform="translate(408,449)"/>
<path d="M0 0 C2 1 2 1 2 1 Z " fill="#18202A" transform="translate(376,449)"/>
<path d="M0 0 C2 1 2 1 2 1 Z " fill="#34404C" transform="translate(645,448)"/>
<path d="M0 0 C2 1 2 1 2 1 Z " fill="#26303E" transform="translate(374,448)"/>
<path d="M0 0 C2 1 2 1 2 1 Z " fill="#1F303E" transform="translate(413,447)"/>
<path d="M0 0 C2 1 2 1 2 1 Z " fill="#171B1F" transform="translate(371,447)"/>
<path d="M0 0 C2 1 2 1 2 1 Z " fill="#15161B" transform="translate(641,446)"/>
<path d="M0 0 C2 1 2 1 2 1 Z " fill="#0F1215" transform="translate(689,445)"/>
<path d="M0 0 C2 1 2 1 2 1 Z " fill="#13171B" transform="translate(638,444)"/>
<path d="M0 0 C2 1 2 1 2 1 Z " fill="#222C39" transform="translate(365,443)"/>
<path d="M0 0 C2 1 2 1 2 1 Z " fill="#2D3442" transform="translate(420,442)"/>
<path d="" fill="#000000" transform="translate(0,0)"/>
<path d="" fill="#080B0C" transform="translate(0,0)"/>
<path d="" fill="#1B242B" transform="translate(0,0)"/>
<path d="" fill="#161A21" transform="translate(0,0)"/>
<path d="" fill="#1A1F23" transform="translate(0,0)"/>
<path d="" fill="#101518" transform="translate(0,0)"/>
<path d="M0 0 C2 1 2 1 2 1 Z " fill="#2A3942" transform="translate(675,431)"/>
<path d="M0 0 C2 1 2 1 2 1 Z " fill="#0F1216" transform="translate(654,431)"/>
<path d="M0 0 C2 1 2 1 2 1 Z " fill="#141C20" transform="translate(677,430)"/>
<path d="M0 0 C2 1 2 1 2 1 Z " fill="#141D26" transform="translate(652,430)"/>
<path d="" fill="#232B33" transform="translate(0,0)"/>
<path d="M0 0 C2 1 2 1 2 1 Z " fill="#171F26" transform="translate(403,430)"/>
<path d="M0 0 C2 1 2 1 2 1 Z " fill="#0A0E11" transform="translate(381,430)"/>
<path d="" fill="#21262D" transform="translate(0,0)"/>
<path d="" fill="#0F1216" transform="translate(0,0)"/>
<path d="" fill="#11171C" transform="translate(0,0)"/>
<path d="" fill="#232E37" transform="translate(0,0)"/>
<path d="" fill="#0E1113" transform="translate(0,0)"/>
<path d="" fill="#141B22" transform="translate(0,0)"/>
<path d="" fill="#0F191D" transform="translate(0,0)"/>
<path d="" fill="#3B485A" transform="translate(0,0)"/>
<path d="" fill="#262E39" transform="translate(0,0)"/>
<path d="" fill="#090A0B" transform="translate(0,0)"/>
<path d="M0 0 C2 1 2 1 2 1 Z " fill="#2C3443" transform="translate(237,421)"/>
<path d="M0 0 C2 1 2 1 2 1 Z " fill="#101317" transform="translate(230,421)"/>
<path d="M0 0 C2 1 2 1 2 1 Z " fill="#1D2228" transform="translate(678,416)"/>
<path d="M0 0 C2 1 2 1 2 1 Z " fill="#14191D" transform="translate(675,415)"/>
<path d="" fill="#0E1319" transform="translate(0,0)"/>
<path d="M0 0 C2 1 2 1 2 1 Z " fill="#0B0F13" transform="translate(673,414)"/>
<path d="" fill="#0C1014" transform="translate(0,0)"/>
<path d="M0 0 C2 1 2 1 2 1 Z " fill="#1A222A" transform="translate(664,412)"/>
<path d="" fill="#13171C" transform="translate(0,0)"/>
<path d="" fill="#0F1315" transform="translate(0,0)"/>
<path d="" fill="#161B1E" transform="translate(0,0)"/>
<path d="" fill="#182227" transform="translate(0,0)"/>
<path d="M0 0 C2 1 2 1 2 1 Z " fill="#111820" transform="translate(648,408)"/>
<path d="M0 0 C2 1 2 1 2 1 Z " fill="#19212B" transform="translate(643,406)"/>
<path d="M0 0 C2 1 2 1 2 1 Z " fill="#1C222B" transform="translate(641,405)"/>
<path d="M0 0 C2 1 2 1 2 1 Z " fill="#15171A" transform="translate(249,404)"/>
<path d="M0 0 C2 1 2 1 2 1 Z " fill="#181D23" transform="translate(152,404)"/>
<path d="M0 0 C2 1 2 1 2 1 Z " fill="#171D23" transform="translate(637,403)"/>
<path d="M0 0 C2 1 2 1 2 1 Z " fill="#1E272F" transform="translate(154,403)"/>
<path d="" fill="#1A1F25" transform="translate(0,0)"/>
<path d="" fill="#192228" transform="translate(0,0)"/>
<path d="" fill="#161B1D" transform="translate(0,0)"/>
<path d="M0 0 C2 1 2 1 2 1 Z " fill="#13181F" transform="translate(690,399)"/>
<path d="M0 0 C2 1 2 1 2 1 Z " fill="#0E1317" transform="translate(685,397)"/>
<path d="M0 0 C2 1 2 1 2 1 Z " fill="#11171A" transform="translate(683,396)"/>
<path d="M0 0 C2 1 2 1 2 1 Z " fill="#242B32" transform="translate(268,395)"/>
<path d="M0 0 C2 1 2 1 2 1 Z " fill="#0E141A" transform="translate(677,394)"/>
<path d="" fill="#11171C" transform="translate(0,0)"/>
<path d="M0 0 C2 1 2 1 2 1 Z " fill="#0C151C" transform="translate(664,391)"/>
<path d="" fill="#101317" transform="translate(0,0)"/>
<path d="M0 0 C2 1 2 1 2 1 Z " fill="#13181C" transform="translate(652,388)"/>
<path d="" fill="#10171C" transform="translate(0,0)"/>
<path d="M0 0 C2 1 2 1 2 1 Z " fill="#101619" transform="translate(142,388)"/>
<path d="M0 0 C2 1 2 1 2 1 Z " fill="#172127" transform="translate(650,387)"/>
<path d="" fill="#0E1217" transform="translate(0,0)"/>
<path d="" fill="#10161A" transform="translate(0,0)"/>
<path d="M0 0 C2 1 2 1 2 1 Z " fill="#26343F" transform="translate(257,387)"/>
<path d="" fill="#151C22" transform="translate(0,0)"/>
<path d="" fill="#0F161D" transform="translate(0,0)"/>
<path d="M0 0 C2 1 2 1 2 1 Z " fill="#1A232D" transform="translate(255,386)"/>
<path d="" fill="#080A0D" transform="translate(0,0)"/>
<path d="M0 0 C2 1 2 1 2 1 Z " fill="#28313F" transform="translate(253,385)"/>
<path d="M0 0 C2 1 2 1 2 1 Z " fill="#232E39" transform="translate(148,385)"/>
<path d="" fill="#161E26" transform="translate(0,0)"/>
<path d="M0 0 C2 1 2 1 2 1 Z " fill="#151A1E" transform="translate(250,384)"/>
<path d="M0 0 C2 1 2 1 2 1 Z " fill="#060A0E" transform="translate(151,384)"/>
<path d="" fill="#273240" transform="translate(0,0)"/>
<path d="" fill="#0F1316" transform="translate(0,0)"/>
<path d="" fill="#0D1316" transform="translate(0,0)"/>
<path d="" fill="#0B0E11" transform="translate(0,0)"/>
<path d="" fill="#0D1113" transform="translate(0,0)"/>
<path d="M0 0 C2 1 2 1 2 1 Z " fill="#222B31" transform="translate(553,380)"/>
<path d="" fill="#12171A" transform="translate(0,0)"/>
<path d="" fill="#1A1F24" transform="translate(0,0)"/>
<path d="" fill="#080F11" transform="translate(0,0)"/>
<path d="M0 0 C2 1 2 1 2 1 Z " fill="#0D1014" transform="translate(532,378)"/>
<path d="M0 0 C2 1 2 1 2 1 Z " fill="#36424B" transform="translate(490,378)"/>
<path d="M0 0 C2 1 2 1 2 1 Z " fill="#1E242B" transform="translate(534,377)"/>
<path d="" fill="#1B2128" transform="translate(0,0)"/>
<path d="" fill="#222E36" transform="translate(0,0)"/>
<path d="M0 0 C2 1 2 1 2 1 Z " fill="#171E25" transform="translate(671,376)"/>
<path d="M0 0 C2 1 2 1 2 1 Z " fill="#0F1519" transform="translate(652,376)"/>
<path d="M0 0 C2 1 2 1 2 1 Z " fill="#080D0D" transform="translate(398,376)"/>
<path d="M0 0 C2 1 2 1 2 1 Z " fill="#0F1418" transform="translate(381,376)"/>
<path d="" fill="#1D242B" transform="translate(0,0)"/>
<path d="" fill="#0E151A" transform="translate(0,0)"/>
<path d="" fill="#111315" transform="translate(0,0)"/>
<path d="" fill="#161D2A" transform="translate(0,0)"/>
<path d="M0 0 C2 1 2 1 2 1 Z " fill="#080C0E" transform="translate(215,372)"/>
<path d="M0 0 C2 1 2 1 2 1 Z " fill="#0C1115" transform="translate(217,371)"/>
<path d="M0 0 C2 1 2 1 2 1 Z " fill="#0D1115" transform="translate(184,371)"/>
<path d="" fill="#202831" transform="translate(0,0)"/>
<path d="M0 0 C2 1 2 1 2 1 Z " fill="#171C23" transform="translate(182,370)"/>
<path d="M0 0 C2 1 2 1 2 1 Z " fill="#191D23" transform="translate(221,369)"/>
<path d="M0 0 C2 1 2 1 2 1 Z " fill="#171D23" transform="translate(224,367)"/>
<path d="M0 0 C2 1 2 1 2 1 Z " fill="#121A23" transform="translate(174,365)"/>
<path d="M0 0 C2 1 2 1 2 1 Z " fill="#272F3C" transform="translate(364,364)"/>
<path d="M0 0 C2 1 2 1 2 1 Z " fill="#161E26" transform="translate(367,362)"/>
<path d="M0 0 C2 1 2 1 2 1 Z " fill="#242C37" transform="translate(230,362)"/>
<path d="M0 0 C2 1 2 1 2 1 Z " fill="#212933" transform="translate(685,361)"/>
<path d="M0 0 C2 1 2 1 2 1 Z " fill="#1F262E" transform="translate(467,361)"/>
<path d="" fill="#060608" transform="translate(0,0)"/>
<path d="M0 0 C2 1 2 1 2 1 Z " fill="#1E272F" transform="translate(370,360)"/>
<path d="M0 0 C2 1 2 1 2 1 Z " fill="#101417" transform="translate(682,359)"/>
<path d="M0 0 C2 1 2 1 2 1 Z " fill="#0F1318" transform="translate(643,359)"/>
<path d="M0 0 C2 1 2 1 2 1 Z " fill="#1C2125" transform="translate(562,359)"/>
<path d="M0 0 C2 1 2 1 2 1 Z " fill="#10191F" transform="translate(530,359)"/>
<path d="M0 0 C2 1 2 1 2 1 Z " fill="#060709" transform="translate(470,359)"/>
<path d="M0 0 C2 1 2 1 2 1 Z " fill="#12171D" transform="translate(408,359)"/>
<path d="M0 0 C2 1 2 1 2 1 Z " fill="#1F272F" transform="translate(646,358)"/>
<path d="M0 0 C2 1 2 1 2 1 Z " fill="#1D272D" transform="translate(559,358)"/>
<path d="M0 0 C2 1 2 1 2 1 Z " fill="#151B21" transform="translate(533,358)"/>
<path d="M0 0 C2 1 2 1 2 1 Z " fill="#1D262F" transform="translate(473,358)"/>
<path d="M0 0 C2 1 2 1 2 1 Z " fill="#1F2B32" transform="translate(405,358)"/>
<path d="M0 0 C2 1 2 1 2 1 Z " fill="#28313D" transform="translate(375,358)"/>
<path d="" fill="#132226" transform="translate(0,0)"/>
<path d="M0 0 C2 1 2 1 2 1 Z " fill="#1A2025" transform="translate(535,357)"/>
<path d="M0 0 C2 1 2 1 2 1 Z " fill="#1E262E" transform="translate(190,354)"/>
<path d="" fill="#222A32" transform="translate(0,0)"/>
<path d="" fill="#1C232A" transform="translate(0,0)"/>
<path d="M0 0 C2 1 2 1 2 1 Z " fill="#282F3A" transform="translate(212,353)"/>
<path d="M0 0 C2 1 2 1 2 1 Z " fill="#181E25" transform="translate(187,352)"/>
<path d="M0 0 C2 1 2 1 2 1 Z " fill="#181E25" transform="translate(185,351)"/>
<path d="" fill="#111618" transform="translate(0,0)"/>
<path d="" fill="#171D24" transform="translate(0,0)"/>
<path d="" fill="#28333F" transform="translate(0,0)"/>
<path d="" fill="#11161C" transform="translate(0,0)"/>
<path d="" fill="#2B3845" transform="translate(0,0)"/>
<path d="M0 0 C2 1 2 1 2 1 Z " fill="#12171B" transform="translate(601,345)"/>
<path d="" fill="#131B21" transform="translate(0,0)"/>
<path d="M0 0 C2 1 2 1 2 1 Z " fill="#131619" transform="translate(599,344)"/>
<path d="" fill="#151C22" transform="translate(0,0)"/>
<path d="" fill="#111A21" transform="translate(0,0)"/>
<path d="" fill="#1F2529" transform="translate(0,0)"/>
<path d="" fill="#1A1E23" transform="translate(0,0)"/>
<path d="" fill="#1C2327" transform="translate(0,0)"/>
<path d="" fill="#2A313A" transform="translate(0,0)"/>
<path d="" fill="#141C22" transform="translate(0,0)"/>
<path d="" fill="#0F1218" transform="translate(0,0)"/>
<path d="" fill="#090C0F" transform="translate(0,0)"/>
<path d="" fill="#11151C" transform="translate(0,0)"/>
<path d="M0 0 C2 1 2 1 2 1 Z " fill="#30363E" transform="translate(613,321)"/>
<path d="M0 0 C2 1 2 1 2 1 Z " fill="#0A0D0E" transform="translate(602,321)"/>
<path d="" fill="#07080B" transform="translate(0,0)"/>
<path d="" fill="#1B2226" transform="translate(0,0)"/>
<path d="" fill="#20282F" transform="translate(0,0)"/>
<path d="" fill="#1B222C" transform="translate(0,0)"/>
<path d="" fill="#0C1214" transform="translate(0,0)"/>
<path d="M0 0 C2 1 2 1 2 1 Z " fill="#151B21" transform="translate(186,311)"/>
<path d="M0 0 C2 1 2 1 2 1 Z " fill="#384350" transform="translate(213,310)"/>
<path d="M0 0 C2 1 2 1 2 1 Z " fill="#232B34" transform="translate(189,309)"/>
<path d="" fill="#12161B" transform="translate(0,0)"/>
<path d="M0 0 C2 1 2 1 2 1 Z " fill="#1D2229" transform="translate(174,297)"/>
<path d="M0 0 C2 1 2 1 2 1 Z " fill="#12161B" transform="translate(180,293)"/>
<path d="M0 0 C2 1 2 1 2 1 Z " fill="#161D24" transform="translate(219,292)"/>
<path d="M0 0 C2 1 2 1 2 1 Z " fill="#090D0F" transform="translate(217,291)"/>
<path d="M0 0 C2 1 2 1 2 1 Z " fill="#1C2126" transform="translate(213,290)"/>
<path d="M0 0 C2 1 2 1 2 1 Z " fill="#222A32" transform="translate(187,290)"/>
<path d="" fill="#000000" transform="translate(0,0)"/>
<path d="" fill="#161C20" transform="translate(0,0)"/>
<path d="" fill="#182026" transform="translate(0,0)"/>
<path d="" fill="#202C36" transform="translate(0,0)"/>
<path d="" fill="#0A0E12" transform="translate(0,0)"/>
<path d="" fill="#000000" transform="translate(0,0)"/>
<path d="" fill="#131B1E" transform="translate(0,0)"/>
<path d="" fill="#3D4A57" transform="translate(0,0)"/>
<path d="" fill="#000000" transform="translate(0,0)"/>
<path d="" fill="#000000" transform="translate(0,0)"/>
<path d="" fill="#303A44" transform="translate(0,0)"/>
<path d="" fill="#000000" transform="translate(0,0)"/>
<path d="" fill="#0F171D" transform="translate(0,0)"/>
<path d="" fill="#273038" transform="translate(0,0)"/>
<path d="" fill="#060C0F" transform="translate(0,0)"/>
<path d="" fill="#000402" transform="translate(0,0)"/>
<path d="" fill="#020708" transform="translate(0,0)"/>
<path d="" fill="#000000" transform="translate(0,0)"/>
<path d="" fill="#1A2329" transform="translate(0,0)"/>
<path d="" fill="#192025" transform="translate(0,0)"/>
<path d="" fill="#000202" transform="translate(0,0)"/>
<path d="" fill="#1B2226" transform="translate(0,0)"/>
<path d="" fill="#010303" transform="translate(0,0)"/>
<path d="" fill="#171F23" transform="translate(0,0)"/>
<path d="" fill="#000000" transform="translate(0,0)"/>
<path d="" fill="#6C84A4" transform="translate(0,0)"/>
<path d="" fill="#293640" transform="translate(0,0)"/>
<path d="" fill="#111B1C" transform="translate(0,0)"/>
<path d="" fill="#262E36" transform="translate(0,0)"/>
<path d="" fill="#11181C" transform="translate(0,0)"/>
<path d="" fill="#4F6171" transform="translate(0,0)"/>
<path d="" fill="#172528" transform="translate(0,0)"/>
<path d="" fill="#171B1D" transform="translate(0,0)"/>
<path d="" fill="#080D12" transform="translate(0,0)"/>
<path d="" fill="#080908" transform="translate(0,0)"/>
<path d="" fill="#1C252D" transform="translate(0,0)"/>
<path d="" fill="#000000" transform="translate(0,0)"/>
<path d="" fill="#1A2126" transform="translate(0,0)"/>
<path d="" fill="#000000" transform="translate(0,0)"/>
<path d="" fill="#000000" transform="translate(0,0)"/>
<path d="" fill="#617382" transform="translate(0,0)"/>
<path d="" fill="#000000" transform="translate(0,0)"/>
<path d="" fill="#313D49" transform="translate(0,0)"/>
<path d="" fill="#485667" transform="translate(0,0)"/>
<path d="" fill="#303C4A" transform="translate(0,0)"/>
<path d="" fill="#3F4957" transform="translate(0,0)"/>
<path d="" fill="#000000" transform="translate(0,0)"/>
<path d="" fill="#223442" transform="translate(0,0)"/>
<path d="" fill="#1A1E23" transform="translate(0,0)"/>
<path d="" fill="#121719" transform="translate(0,0)"/>
<path d="" fill="#030302" transform="translate(0,0)"/>
<path d="" fill="#000000" transform="translate(0,0)"/>
<path d="" fill="#111419" transform="translate(0,0)"/>
<path d="" fill="#212730" transform="translate(0,0)"/>
<path d="" fill="#000000" transform="translate(0,0)"/>
<path d="" fill="#232932" transform="translate(0,0)"/>
<path d="" fill="#000000" transform="translate(0,0)"/>
<path d="" fill="#0C1219" transform="translate(0,0)"/>
<path d="" fill="#3E4B57" transform="translate(0,0)"/>
<path d="" fill="#030605" transform="translate(0,0)"/>
<path d="" fill="#222931" transform="translate(0,0)"/>
<path d="" fill="#596C7C" transform="translate(0,0)"/>
<path d="" fill="#171B22" transform="translate(0,0)"/>
<path d="" fill="#1C2230" transform="translate(0,0)"/>
<path d="" fill="#070B09" transform="translate(0,0)"/>
<path d="" fill="#0D1214" transform="translate(0,0)"/>
<path d="" fill="#000000" transform="translate(0,0)"/>
<path d="" fill="#243138" transform="translate(0,0)"/>
<path d="" fill="#000000" transform="translate(0,0)"/>
<path d="" fill="#0C1012" transform="translate(0,0)"/>
<path d="" fill="#000000" transform="translate(0,0)"/>
<path d="" fill="#000201" transform="translate(0,0)"/>
<path d="" fill="#4D5C6D" transform="translate(0,0)"/>
<path d="" fill="#2C3443" transform="translate(0,0)"/>
<path d="" fill="#1B2228" transform="translate(0,0)"/>
<path d="" fill="#000202" transform="translate(0,0)"/>
<path d="" fill="#0D1319" transform="translate(0,0)"/>
<path d="" fill="#000000" transform="translate(0,0)"/>
<path d="" fill="#000000" transform="translate(0,0)"/>
<path d="" fill="#0F151A" transform="translate(0,0)"/>
<path d="" fill="#000000" transform="translate(0,0)"/>
<path d="" fill="#070C10" transform="translate(0,0)"/>
<path d="" fill="#4B5B6A" transform="translate(0,0)"/>
<path d="" fill="#101619" transform="translate(0,0)"/>
<path d="" fill="#000000" transform="translate(0,0)"/>
<path d="" fill="#1E272E" transform="translate(0,0)"/>
<path d="" fill="#11171D" transform="translate(0,0)"/>
<path d="" fill="#040805" transform="translate(0,0)"/>
<path d="" fill="#181D23" transform="translate(0,0)"/>
<path d="" fill="#17222E" transform="translate(0,0)"/>
<path d="" fill="#1A2226" transform="translate(0,0)"/>
<path d="" fill="#252B36" transform="translate(0,0)"/>
<path d="" fill="#10161C" transform="translate(0,0)"/>
<path d="" fill="#222A2F" transform="translate(0,0)"/>
<path d="" fill="#0D1519" transform="translate(0,0)"/>
<path d="" fill="#121A1F" transform="translate(0,0)"/>
<path d="" fill="#04080A" transform="translate(0,0)"/>
<path d="" fill="#0E1013" transform="translate(0,0)"/>
<path d="" fill="#0F131D" transform="translate(0,0)"/>
<path d="" fill="#000000" transform="translate(0,0)"/>
<path d="" fill="#000000" transform="translate(0,0)"/>
<path d="" fill="#33424F" transform="translate(0,0)"/>
<path d="" fill="#222A31" transform="translate(0,0)"/>
<path d="" fill="#000000" transform="translate(0,0)"/>
<path d="" fill="#121C21" transform="translate(0,0)"/>
<path d="" fill="#232B36" transform="translate(0,0)"/>
<path d="" fill="#29333D" transform="translate(0,0)"/>
<path d="" fill="#121920" transform="translate(0,0)"/>
<path d="" fill="#000000" transform="translate(0,0)"/>
<path d="" fill="#0B141A" transform="translate(0,0)"/>
<path d="" fill="#070D0B" transform="translate(0,0)"/>
<path d="" fill="#131D22" transform="translate(0,0)"/>
<path d="" fill="#0D1011" transform="translate(0,0)"/>
<path d="" fill="#000000" transform="translate(0,0)"/>
<path d="" fill="#0B0F0E" transform="translate(0,0)"/>
<path d="" fill="#000000" transform="translate(0,0)"/>
<path d="" fill="#242F35" transform="translate(0,0)"/>
<path d="" fill="#050806" transform="translate(0,0)"/>
<path d="" fill="#000000" transform="translate(0,0)"/>
<path d="" fill="#000000" transform="translate(0,0)"/>
<path d="" fill="#0C1012" transform="translate(0,0)"/>
<path d="" fill="#060808" transform="translate(0,0)"/>
<path d="" fill="#252E36" transform="translate(0,0)"/>
<path d="" fill="#0D0F11" transform="translate(0,0)"/>
<path d="" fill="#0F1517" transform="translate(0,0)"/>
<path d="" fill="#2D3A4A" transform="translate(0,0)"/>
<path d="" fill="#21292E" transform="translate(0,0)"/>
<path d="" fill="#000000" transform="translate(0,0)"/>
<path d="" fill="#000000" transform="translate(0,0)"/>
<path d="" fill="#000000" transform="translate(0,0)"/>
<path d="" fill="#0F171B" transform="translate(0,0)"/>
<path d="" fill="#101217" transform="translate(0,0)"/>
<path d="" fill="#000000" transform="translate(0,0)"/>
<path d="" fill="#020003" transform="translate(0,0)"/>
<path d="" fill="#080C0F" transform="translate(0,0)"/>
<path d="" fill="#000000" transform="translate(0,0)"/>
<path d="" fill="#161D21" transform="translate(0,0)"/>
<path d="" fill="#191F24" transform="translate(0,0)"/>
<path d="" fill="#090D0F" transform="translate(0,0)"/>
<path d="" fill="#12161B" transform="translate(0,0)"/>
<path d="" fill="#000504" transform="translate(0,0)"/>
<path d="" fill="#030402" transform="translate(0,0)"/>
<path d="" fill="#181E25" transform="translate(0,0)"/>
<path d="" fill="#18242F" transform="translate(0,0)"/>
<path d="" fill="#000000" transform="translate(0,0)"/>
<path d="" fill="#0A0C0C" transform="translate(0,0)"/>
<path d="" fill="#1C2228" transform="translate(0,0)"/>
<path d="" fill="#000000" transform="translate(0,0)"/>
<path d="" fill="#0E1112" transform="translate(0,0)"/>
<path d="" fill="#0F1317" transform="translate(0,0)"/>
<path d="" fill="#000000" transform="translate(0,0)"/>
<path d="" fill="#07070A" transform="translate(0,0)"/>
<path d="" fill="#0A0D10" transform="translate(0,0)"/>
<path d="" fill="#010302" transform="translate(0,0)"/>
<path d="" fill="#37414D" transform="translate(0,0)"/>
<path d="" fill="#162029" transform="translate(0,0)"/>
<path d="" fill="#0B0D0F" transform="translate(0,0)"/>
<path d="" fill="#1E262F" transform="translate(0,0)"/>
<path d="" fill="#080D0E" transform="translate(0,0)"/>
<path d="" fill="#0E151B" transform="translate(0,0)"/>
<path d="" fill="#10161A" transform="translate(0,0)"/>
<path d="" fill="#000000" transform="translate(0,0)"/>
<path d="" fill="#283037" transform="translate(0,0)"/>
<path d="" fill="#212A35" transform="translate(0,0)"/>
<path d="" fill="#000000" transform="translate(0,0)"/>
<path d="" fill="#000000" transform="translate(0,0)"/>
<path d="" fill="#181F25" transform="translate(0,0)"/>
<path d="" fill="#0F161C" transform="translate(0,0)"/>
<path d="" fill="#000000" transform="translate(0,0)"/>
<path d="" fill="#000307" transform="translate(0,0)"/>
<path d="" fill="#13181A" transform="translate(0,0)"/>
<path d="" fill="#000302" transform="translate(0,0)"/>
<path d="" fill="#000000" transform="translate(0,0)"/>
<path d="" fill="#121618" transform="translate(0,0)"/>
<path d="" fill="#192224" transform="translate(0,0)"/>
<path d="" fill="#0A0B0C" transform="translate(0,0)"/>
<path d="" fill="#0F1419" transform="translate(0,0)"/>
<path d="" fill="#070B0F" transform="translate(0,0)"/>
<path d="" fill="#161E23" transform="translate(0,0)"/>
<path d="" fill="#000000" transform="translate(0,0)"/>
<path d="" fill="#03080C" transform="translate(0,0)"/>
<path d="" fill="#000000" transform="translate(0,0)"/>
<path d="" fill="#000000" transform="translate(0,0)"/>
<path d="" fill="#000404" transform="translate(0,0)"/>
<path d="" fill="#060A0D" transform="translate(0,0)"/>
<path d="" fill="#121E23" transform="translate(0,0)"/>
<path d="" fill="#1D2730" transform="translate(0,0)"/>
<path d="" fill="#000000" transform="translate(0,0)"/>
<path d="" fill="#000000" transform="translate(0,0)"/>
<path d="" fill="#090B0E" transform="translate(0,0)"/>
<path d="" fill="#10181C" transform="translate(0,0)"/>
<path d="" fill="#191F26" transform="translate(0,0)"/>
<path d="" fill="#13191C" transform="translate(0,0)"/>
<path d="" fill="#131C20" transform="translate(0,0)"/>
<path d="" fill="#050A08" transform="translate(0,0)"/>
<path d="" fill="#18212A" transform="translate(0,0)"/>
<path d="" fill="#192029" transform="translate(0,0)"/>
<path d="" fill="#35444F" transform="translate(0,0)"/>
<path d="" fill="#323D49" transform="translate(0,0)"/>
<path d="" fill="#181D24" transform="translate(0,0)"/>
<path d="" fill="#000000" transform="translate(0,0)"/>
<path d="" fill="#0D1516" transform="translate(0,0)"/>
<path d="" fill="#242E37" transform="translate(0,0)"/>
<path d="" fill="#1E252E" transform="translate(0,0)"/>
<path d="" fill="#192025" transform="translate(0,0)"/>
<path d="" fill="#0E1517" transform="translate(0,0)"/>
<path d="" fill="#131A1F" transform="translate(0,0)"/>
<path d="" fill="#303D48" transform="translate(0,0)"/>
<path d="" fill="#192125" transform="translate(0,0)"/>
<path d="" fill="#0D1319" transform="translate(0,0)"/>
<path d="" fill="#111719" transform="translate(0,0)"/>
<path d="" fill="#000000" transform="translate(0,0)"/>
<path d="" fill="#040606" transform="translate(0,0)"/>
<path d="" fill="#1E2630" transform="translate(0,0)"/>
<path d="" fill="#000205" transform="translate(0,0)"/>
<path d="" fill="#050A0E" transform="translate(0,0)"/>
<path d="" fill="#0E1419" transform="translate(0,0)"/>
<path d="" fill="#171B21" transform="translate(0,0)"/>
<path d="" fill="#12171C" transform="translate(0,0)"/>
<path d="" fill="#131E25" transform="translate(0,0)"/>
<path d="" fill="#090708" transform="translate(0,0)"/>
<path d="" fill="#1E262D" transform="translate(0,0)"/>
<path d="" fill="#182026" transform="translate(0,0)"/>
<path d="" fill="#060A09" transform="translate(0,0)"/>
<path d="" fill="#1A2028" transform="translate(0,0)"/>
<path d="" fill="#070B0C" transform="translate(0,0)"/>
<path d="" fill="#0F151A" transform="translate(0,0)"/>
<path d="" fill="#14171A" transform="translate(0,0)"/>
<path d="" fill="#212B36" transform="translate(0,0)"/>
<path d="" fill="#000000" transform="translate(0,0)"/>
<path d="" fill="#05090B" transform="translate(0,0)"/>
<path d="" fill="#000000" transform="translate(0,0)"/>
<path d="" fill="#060A0C" transform="translate(0,0)"/>
<path d="" fill="#000205" transform="translate(0,0)"/>
<path d="" fill="#202F37" transform="translate(0,0)"/>
<path d="" fill="#182129" transform="translate(0,0)"/>
<path d="" fill="#202631" transform="translate(0,0)"/>
<path d="" fill="#141B22" transform="translate(0,0)"/>
<path d="" fill="#000000" transform="translate(0,0)"/>
<path d="" fill="#202931" transform="translate(0,0)"/>
<path d="" fill="#2C3745" transform="translate(0,0)"/>
<path d="" fill="#232934" transform="translate(0,0)"/>
<path d="" fill="#131B1F" transform="translate(0,0)"/>
<path d="" fill="#000000" transform="translate(0,0)"/>
<path d="" fill="#22282F" transform="translate(0,0)"/>
<path d="" fill="#0D1416" transform="translate(0,0)"/>
<path d="" fill="#0E1419" transform="translate(0,0)"/>
<path d="" fill="#1D242E" transform="translate(0,0)"/>
<path d="" fill="#1F252E" transform="translate(0,0)"/>
<path d="" fill="#121A1D" transform="translate(0,0)"/>
<path d="" fill="#13191E" transform="translate(0,0)"/>
<path d="" fill="#202A32" transform="translate(0,0)"/>
<path d="" fill="#13181C" transform="translate(0,0)"/>
<path d="" fill="#0E131A" transform="translate(0,0)"/>
<path d="" fill="#222A32" transform="translate(0,0)"/>
<path d="" fill="#141C20" transform="translate(0,0)"/>
<path d="" fill="#192127" transform="translate(0,0)"/>
<path d="" fill="#27313D" transform="translate(0,0)"/>
<path d="" fill="#353F4A" transform="translate(0,0)"/>
<path d="" fill="#12171A" transform="translate(0,0)"/>
<path d="" fill="#000000" transform="translate(0,0)"/>
<path d="" fill="#070C0E" transform="translate(0,0)"/>
<path d="" fill="#000000" transform="translate(0,0)"/>
<path d="" fill="#283240" transform="translate(0,0)"/>
<path d="" fill="#1D222D" transform="translate(0,0)"/>
<path d="" fill="#1E252A" transform="translate(0,0)"/>
<path d="" fill="#131A1D" transform="translate(0,0)"/>
<path d="" fill="#000000" transform="translate(0,0)"/>
<path d="" fill="#000000" transform="translate(0,0)"/>
<path d="" fill="#000000" transform="translate(0,0)"/>
<path d="" fill="#0E1213" transform="translate(0,0)"/>
<path d="" fill="#15181B" transform="translate(0,0)"/>
<path d="" fill="#141D21" transform="translate(0,0)"/>
<path d="" fill="#0E1618" transform="translate(0,0)"/>
<path d="" fill="#000000" transform="translate(0,0)"/>
<path d="" fill="#090C0D" transform="translate(0,0)"/>
<path d="" fill="#000000" transform="translate(0,0)"/>
<path d="" fill="#0B0E0D" transform="translate(0,0)"/>
<path d="" fill="#222D3B" transform="translate(0,0)"/>
<path d="" fill="#182129" transform="translate(0,0)"/>
<path d="" fill="#242D33" transform="translate(0,0)"/>
<path d="" fill="#000000" transform="translate(0,0)"/>
<path d="" fill="#13171C" transform="translate(0,0)"/>
<path d="" fill="#1E2834" transform="translate(0,0)"/>
<path d="" fill="#060807" transform="translate(0,0)"/>
<path d="" fill="#2C3945" transform="translate(0,0)"/>
<path d="" fill="#0A1114" transform="translate(0,0)"/>
<path d="" fill="#000000" transform="translate(0,0)"/>
<path d="" fill="#252E37" transform="translate(0,0)"/>
<path d="" fill="#232F38" transform="translate(0,0)"/>
<path d="" fill="#0D1113" transform="translate(0,0)"/>
<path d="" fill="#171E28" transform="translate(0,0)"/>
<path d="" fill="#060707" transform="translate(0,0)"/>
<path d="" fill="#151D20" transform="translate(0,0)"/>
<path d="" fill="#151F25" transform="translate(0,0)"/>
<path d="" fill="#02070B" transform="translate(0,0)"/>
<path d="" fill="#06070D" transform="translate(0,0)"/>
<path d="" fill="#20272C" transform="translate(0,0)"/>
<path d="" fill="#151C21" transform="translate(0,0)"/>
<path d="" fill="#060D16" transform="translate(0,0)"/>
<path d="" fill="#2B343B" transform="translate(0,0)"/>
<path d="" fill="#252F38" transform="translate(0,0)"/>
<path d="" fill="#080A0F" transform="translate(0,0)"/>
<path d="" fill="#000000" transform="translate(0,0)"/>
<path d="" fill="#697B8B" transform="translate(0,0)"/>
<path d="" fill="#080D12" transform="translate(0,0)"/>
<path d="" fill="#293B4A" transform="translate(0,0)"/>
<path d="" fill="#26323C" transform="translate(0,0)"/>
<path d="" fill="#1B212A" transform="translate(0,0)"/>
<path d="" fill="#1F2631" transform="translate(0,0)"/>
<path d="" fill="#151B22" transform="translate(0,0)"/>
<path d="" fill="#070A0E" transform="translate(0,0)"/>
<path d="" fill="#10171A" transform="translate(0,0)"/>
<path d="" fill="#070D11" transform="translate(0,0)"/>
<path d="" fill="#0C0F13" transform="translate(0,0)"/>
<path d="" fill="#0D1113" transform="translate(0,0)"/>
<path d="" fill="#000000" transform="translate(0,0)"/>
<path d="" fill="#070D10" transform="translate(0,0)"/>
<path d="" fill="#3D4957" transform="translate(0,0)"/>
<path d="" fill="#080D0E" transform="translate(0,0)"/>
<path d="" fill="#0E1518" transform="translate(0,0)"/>
<path d="" fill="#060908" transform="translate(0,0)"/>
<path d="" fill="#1F2936" transform="translate(0,0)"/>
<path d="" fill="#2C363F" transform="translate(0,0)"/>
<path d="" fill="#19222E" transform="translate(0,0)"/>
<path d="" fill="#272E36" transform="translate(0,0)"/>
<path d="" fill="#121615" transform="translate(0,0)"/>
<path d="" fill="#1C222A" transform="translate(0,0)"/>
<path d="" fill="#000000" transform="translate(0,0)"/>
<path d="" fill="#1B1E20" transform="translate(0,0)"/>
<path d="" fill="#000000" transform="translate(0,0)"/>
<path d="" fill="#212529" transform="translate(0,0)"/>
<path d="" fill="#000000" transform="translate(0,0)"/>
<path d="" fill="#23282C" transform="translate(0,0)"/>
<path d="" fill="#0B100D" transform="translate(0,0)"/>
<path d="" fill="#263139" transform="translate(0,0)"/>
<path d="" fill="#000000" transform="translate(0,0)"/>
<path d="" fill="#091214" transform="translate(0,0)"/>
<path d="" fill="#010309" transform="translate(0,0)"/>
<path d="" fill="#000607" transform="translate(0,0)"/>
<path d="" fill="#38434D" transform="translate(0,0)"/>
<path d="" fill="#000000" transform="translate(0,0)"/>
<path d="" fill="#B1CAF5" transform="translate(0,0)"/>
<path d="" fill="#283036" transform="translate(0,0)"/>
<path d="" fill="#141A1C" transform="translate(0,0)"/>
<path d="" fill="#2F353D" transform="translate(0,0)"/>
<path d="" fill="#34404C" transform="translate(0,0)"/>
<path d="" fill="#0F1319" transform="translate(0,0)"/>
<path d="" fill="#1A212C" transform="translate(0,0)"/>
<path d="" fill="#2E3848" transform="translate(0,0)"/>
<path d="" fill="#000000" transform="translate(0,0)"/>
<path d="" fill="#0A0E11" transform="translate(0,0)"/>
<path d="" fill="#161C23" transform="translate(0,0)"/>
<path d="" fill="#151D22" transform="translate(0,0)"/>
<path d="" fill="#171C21" transform="translate(0,0)"/>
<path d="" fill="#0F1619" transform="translate(0,0)"/>
<path d="" fill="#191D22" transform="translate(0,0)"/>
<path d="" fill="#313B48" transform="translate(0,0)"/>
<path d="" fill="#1B2127" transform="translate(0,0)"/>
<path d="" fill="#02040A" transform="translate(0,0)"/>
<path d="" fill="#191F25" transform="translate(0,0)"/>
<path d="" fill="#000000" transform="translate(0,0)"/>
<path d="" fill="#000203" transform="translate(0,0)"/>
<path d="" fill="#1C2025" transform="translate(0,0)"/>
<path d="" fill="#0F1215" transform="translate(0,0)"/>
<path d="" fill="#1F272E" transform="translate(0,0)"/>
<path d="" fill="#000000" transform="translate(0,0)"/>
<path d="" fill="#1E272F" transform="translate(0,0)"/>
<path d="" fill="#394453" transform="translate(0,0)"/>
<path d="" fill="#080C0E" transform="translate(0,0)"/>
<path d="" fill="#0F131A" transform="translate(0,0)"/>
<path d="" fill="#101418" transform="translate(0,0)"/>
<path d="" fill="#0B0E12" transform="translate(0,0)"/>
<path d="" fill="#000000" transform="translate(0,0)"/>
<path d="" fill="#1C2129" transform="translate(0,0)"/>
<path d="" fill="#000000" transform="translate(0,0)"/>
<path d="" fill="#14161E" transform="translate(0,0)"/>
<path d="" fill="#030509" transform="translate(0,0)"/>
<path d="" fill="#000000" transform="translate(0,0)"/>
<path d="" fill="#000000" transform="translate(0,0)"/>
<path d="" fill="#000000" transform="translate(0,0)"/>
<path d="" fill="#000000" transform="translate(0,0)"/>
<path d="" fill="#000201" transform="translate(0,0)"/>
<path d="" fill="#11161A" transform="translate(0,0)"/>
<path d="" fill="#161C1F" transform="translate(0,0)"/>
<path d="" fill="#13191A" transform="translate(0,0)"/>
<path d="" fill="#000000" transform="translate(0,0)"/>
<path d="" fill="#1B242B" transform="translate(0,0)"/>
<path d="" fill="#0C0F16" transform="translate(0,0)"/>
<path d="" fill="#1D2933" transform="translate(0,0)"/>
<path d="" fill="#1E2631" transform="translate(0,0)"/>
<path d="" fill="#0A1216" transform="translate(0,0)"/>
<path d="" fill="#141C20" transform="translate(0,0)"/>
<path d="" fill="#0C1018" transform="translate(0,0)"/>
</svg>
